<svg width="143" height="145" viewBox="0 0 143 145" fill="none" xmlns="http://www.w3.org/2000/svg">
<path d="M38.4663 100.84C38.5498 99.8008 39.4174 99 40.4599 99H92.5401C93.5826 99 94.4502 99.8008 94.5337 100.84L97.8265 141.84C97.92 143.004 97.0006 144 95.8329 144H37.1671C35.9994 144 35.08 143.004 35.1735 141.84L38.4663 100.84Z" stroke="#E3000F"/>
<path d="M3.65923 82.8352C3.74497 81.7981 4.61175 81 5.65243 81H45.3476C46.3883 81 47.255 81.7981 47.3408 82.8352L49.821 112.835C49.9174 114.001 48.9974 115 47.8278 115H3.17217C2.00261 115 1.08261 114.001 1.17897 112.835L3.65923 82.8352Z" stroke="#E3000F"/>
<path d="M78 99C78 92.9249 72.8513 88 66.5 88C60.1487 88 55 92.9249 55 99" stroke="#E3000F" stroke-linecap="round"/>
<path d="M34 81C34 76.0294 30.1944 72 25.5 72C20.8056 72 17 76.0294 17 81" stroke="#E3000F" stroke-linecap="round"/>
<path d="M74 99C74 95.134 70.6421 92 66.5 92C62.3579 92 59 95.134 59 99" stroke="#E3000F" stroke-linecap="round"/>
<path d="M31 81C31 77.6863 28.5376 75 25.5 75C22.4624 75 20 77.6863 20 81" stroke="#E3000F" stroke-linecap="round"/>
<path d="M121.5 6H140C141.105 6 142 6.89543 142 8V84C142 85.1046 141.105 86 140 86H101C99.8954 86 99 85.1046 99 84V30" stroke="#E3000F" stroke-linecap="round"/>
<path d="M108 41.5L112.677 36.908C114.246 35.3686 116.762 35.3824 118.313 36.9388L130.2 48.8667" stroke="#E3000F"/>
<path d="M108 62H125" stroke="#E3000F" stroke-linecap="round"/>
<path d="M121.964 40.5806L124.041 38.5034C125.193 37.3514 127.054 37.3294 128.233 38.4538L133 43.0001" stroke="#E3000F"/>
<circle cx="126" cy="32" r="2" stroke="#E3000F"/>
<rect x="108" y="17" width="25" height="32" rx="2" stroke="#E3000F"/>
<rect x="99" y="7" width="16" height="16" rx="8" stroke="#E3000F"/>
<rect x="93" y="1" width="28" height="28" rx="14" stroke="#E3000F"/>
<rect x="108" y="54" width="13" height="4" rx="1" stroke="#E3000F"/>
<path d="M123 10L142 10" stroke="#E3000F" stroke-linecap="round"/>
<path d="M99 71L142 71" stroke="#E3000F"/>
<circle cx="121.5" cy="78.5" r="4.5" stroke="#E3000F"/>
<path d="M92.5 15L55 15C53.8954 15 53 15.8954 53 17L53 98.5" stroke="#E3000F" stroke-linecap="round" stroke-dasharray="2 4"/>
</svg>
