<svg width="123" height="137" viewBox="0 0 123 137" fill="none" xmlns="http://www.w3.org/2000/svg">
<path d="M106.5 88.5C106.224 88.5 106 88.7239 106 89C106 89.2761 106.224 89.5 106.5 89.5V88.5ZM54.5 89.5C54.7761 89.5 55 89.2761 55 89C55 88.7239 54.7761 88.5 54.5 88.5V89.5ZM3 1.5H120V0.5H3V1.5ZM121.5 3V87H122.5V3H121.5ZM1.5 87V3H0.5V87H1.5ZM120 88.5H106.5V89.5H120V88.5ZM54.5 88.5H3V89.5H54.5V88.5ZM0.5 87C0.5 88.3807 1.61929 89.5 3 89.5V88.5C2.17157 88.5 1.5 87.8284 1.5 87H0.5ZM121.5 87C121.5 87.8284 120.828 88.5 120 88.5V89.5C121.381 89.5 122.5 88.3807 122.5 87H121.5ZM120 1.5C120.828 1.5 121.5 2.17157 121.5 3H122.5C122.5 1.61929 121.381 0.5 120 0.5V1.5ZM3 0.5C1.61929 0.5 0.5 1.61929 0.5 3H1.5C1.5 2.17157 2.17157 1.5 3 1.5V0.5Z" fill="#E3000F"/>
<rect x="59" y="42" width="43" height="80" rx="2" stroke="#E3000F"/>
<path d="M59 46H102" stroke="#E3000F"/>
<path d="M59 107L102 107" stroke="#E3000F"/>
<circle cx="81.5" cy="114.5" r="4.5" stroke="#E3000F"/>
<path d="M13 14H33" stroke="#E3000F" stroke-linecap="round"/>
<path d="M0.774862 71.2422L33.2518 38.7653C34.8108 37.2063 37.3373 37.2027 38.9007 38.7573L102 101.5" stroke="#E3000F"/>
<path d="M68.7215 68.5941L86.8819 50.4337C88.444 48.8716 90.9767 48.8716 92.5388 50.4337L122.044 79.9385" stroke="#E3000F"/>
<circle cx="71" cy="85" r="6" stroke="#E3000F" stroke-linecap="round"/>
<ellipse cx="87.9714" cy="95.1239" rx="1.58868" ry="2.38302" transform="rotate(32.7647 87.9714 95.1239)" stroke="#E3000F" stroke-linecap="round"/>
<path d="M82 107C82 100.925 77.0751 96 71 96C64.9249 96 60 100.925 60 107" stroke="#E3000F" stroke-linecap="round"/>
<path d="M87.4628 101.609C87.7589 100.545 87.1362 99.4424 86.072 99.1464C85.0079 98.8503 83.9052 99.473 83.6092 100.537" stroke="#E3000F" stroke-linecap="round"/>
<path d="M87.4629 101.609L86 107M83.6092 100.537L82.0011 106.318" stroke="#E3000F"/>
<circle cx="103" cy="30" r="7" stroke="#E3000F"/>
</svg>
