<?xml version="1.0" encoding="utf-8"?>
<!-- Generator: Adobe Illustrator 24.0.0, SVG Export Plug-In . SVG Version: 6.00 Build 0)  -->
<svg version="1.1" id="Layer_1" xmlns="http://www.w3.org/2000/svg" xmlns:xlink="http://www.w3.org/1999/xlink" x="0px" y="0px"
	 viewBox="0 0 450 450" style="enable-background:new 0 0 450 450;" xml:space="preserve">
<style type="text/css">
	.st0{fill:none;stroke:#231F20;stroke-width:8;stroke-miterlimit:10;}
	.st1{fill:none;stroke:#231F20;stroke-width:6.4444;stroke-miterlimit:10;}
	.st2{fill:none;stroke:#231F20;stroke-width:2;stroke-miterlimit:10;}
	.st3{fill:none;stroke:#231F20;stroke-width:4;stroke-miterlimit:10;}
	.st4{fill:#231F20;}
	.st5{fill:none;stroke:#231F20;stroke-width:8.3563;stroke-miterlimit:10;}
</style>
<g>
	<path class="st4" d="M338.3,211.38c-2.63-3.42-6.32-5.18-10.12-4.84c-4.71,0.42-8.38,3.14-11.23,7.05l0.8-18.55l0-0.18
		c0-1.32-0.03-2.63-0.08-3.94l0.07,0c2.99-50.09-5.43-83.45-25.74-101.98c-26.81-24.47-69.2-18.03-106.6-12.35
		c-27.99,4.25-54.42,8.27-68.71-1.43c-2.15-1.46-4.82-1.68-7.14-0.6c-2.32,1.08-3.86,3.26-4.12,5.83
		c-4.71,45.42,14.38,61.11,33.44,68.74c-7.65,13.96-11.67,29.65-11.67,45.7l1.02,17.8c-3.56-4.39-7.37-5.85-10.46-6.13
		c-3.81-0.33-7.49,1.42-10.12,4.84c-5.3,6.9-5.5,18.62-0.56,32.17c1.81,4.96,2.93,10.56,3.92,15.5
		c2.07,10.32,3.85,19.23,11.62,19.23c4.49,0,7.69-1.04,9.98-2.78c7.06,43.88,31.33,73.27,67.78,81.59
		c6.78,11.8,15.87,19.93,16.41,20.4l2.43,2.15l2.6-1.94c6.6-4.91,12.01-12.59,15.91-19.41c21.25-3.41,39.7-13.98,53.45-30.7
		c11.67-14.19,19.28-31.97,22.33-51.95c2.27,1.66,5.43,2.64,9.81,2.64c7.77,0,9.55-8.91,11.62-19.23c0.99-4.94,2.11-10.53,3.92-15.5
		C343.81,230.01,343.6,218.28,338.3,211.38z M113.12,95.86c2.01,1.88,4.66,3.95,8.1,5.83c15.67,8.59,34.94,6.48,48.35,3.21
		l0.77-0.19c53.04-12.97,98.85-24.17,120.04,9.57l1.69-1.06c-21.96-34.95-68.42-23.59-122.21-10.44l-0.77,0.19
		c-13.02,3.18-31.7,5.25-46.79-2.95c-4.21-2.29-7.2-4.88-9.21-7.01c0.01-3.1,0.15-6.38,0.46-9.9c17.12,10.28,44.34,6.14,73.1,1.78
		c37.29-5.67,75.85-11.52,99.71,10.26c11.33,10.34,18.52,26.24,21.7,48.07c-5.66-15.78-12.22-21.22-12.57-21.51l-1.26,1.56
		c0.1,0.08,9.17,7.71,15.04,30.91c0.05,0.6,0.11,1.17,0.15,1.78c-3.9-8.72-9.13-16.87-15.56-24.14l-0.31-0.33
		c-13.1-13.35-27.02-18.05-40.49-18.05c-20.75,0-40.45,11.17-54.42,19.09c-2.75,1.56-5.35,3.04-7.71,4.29
		c-20.23,10.76-42.62,6.6-44.86,6.14C135.12,139.19,114.06,131.74,113.12,95.86z M307.71,177.91c-1.17-1.76-2.39-3.28-3.56-4.55
		c-4.38-4.73-8.87-7.1-10.96-8.03c-1.81-13.71-5.5-24.73-11-32.97c1.81,1.46,3.61,3.09,5.39,4.91l0.08,0.09
		C297.89,148.95,304.74,162.95,307.71,177.91z M147.08,151.59c1.73,0.27,4.13,0.56,7.03,0.74c-1.05,4.03-1.88,8.38-2.49,13
		c-2.09,0.93-6.58,3.29-10.96,8.03c-1.11,1.21-2.26,2.63-3.38,4.28C139.12,168.5,142.41,159.71,147.08,151.59z M130.37,254.79
		c-0.09,12.71-0.77,15.47-7.69,15.49c-1.49-1.09-2.95-8.41-3.83-12.8c-1.05-5.22-2.23-11.13-4.25-16.67
		c-4.63-12.67-3.35-20.99-0.61-24.55c0.52-0.67,1.55-1.76,2.85-1.76c0.07,0,0.14,0,0.21,0.01c3.76,0.34,7.39,5.26,9.97,13.51
		c1.46,4.68,2.41,9.84,2.93,14.47l0.47,8.22c0,0.13,0,0.28,0,0.41C130.39,252.37,130.38,253.6,130.37,254.79z M219.64,369.12
		c-4.33-4.42-13.22-14.53-16.93-26.31c1.38-0.45,3.15-0.97,5.19-1.45c1.41,4.69,4.74,14.25,9.98,20.21l1.5-1.32
		c-4.87-5.55-8.11-14.73-9.51-19.32c1.63-0.32,3.38-0.61,5.22-0.8c0.85,4.08,3.67,14.95,10.48,22.24
		C223.75,364.82,221.77,367.14,219.64,369.12z M230.77,354.33c-2.79-3.62-3.77-7.17-3.78-7.22l-1.93,0.51
		c0.06,0.22,1.2,4.43,4.62,8.57c-0.9,1.51-1.88,3.03-2.92,4.53c-6.07-6.72-8.77-16.74-9.65-20.75c6.16-0.39,13.02,0.34,18.93,3.82
		C234.95,346.29,233.14,350.16,230.77,354.33z M242.56,348.82c1.31-2.89,2.05-4.84,2.15-5.11l1.04-2.77l-2.35-1.8
		c-18.88-14.5-45.96-2.99-47.11-2.5l-3.02,1.31l0.71,3.21c0.45,2.05,1.05,4.05,1.75,6c-31.89-10.26-52.21-40.11-56.2-83.25
		l-3.99-69.17c0-1.46,0.05-2.91,0.13-4.35c4.79-16.83,17.72-21.51,18.41-21.75l1.19-0.4l0.15-1.25c0.64-5.22,1.58-10.07,2.77-14.51
		c9.85,0.14,23.5-1.32,36.66-8.32c2.46-1.31,5.11-2.81,7.91-4.4c18.77-10.64,43.04-24.41,66.65-14.98c0.41,0.28,0.81,0.56,1.22,0.87
		c9.99,7.68,16.29,21.58,18.72,41.34l0.16,1.24l1.18,0.41c0.7,0.24,13.96,5.06,18.6,22.43c0.05,1.23,0.09,2.46,0.09,3.7l-2.99,69.18
		C303.54,307.68,278.81,340.11,242.56,348.82z M331.35,240.81c-2.02,5.54-3.21,11.45-4.25,16.67c-0.88,4.4-2.35,11.71-3.83,12.8
		c-6.92-0.01-7.6-2.77-7.69-15.48c-0.01-1.19-0.02-2.42-0.04-3.68c-0.1-5.74,0.91-15.11,3.4-23.09c2.58-8.25,6.21-13.18,9.97-13.51
		c0.07-0.01,0.14-0.01,0.21-0.01c1.3,0,2.34,1.09,2.85,1.76C334.7,219.82,335.97,228.14,331.35,240.81z"/>
	<path class="st4" d="M189.53,210.53c0-5.71-4.65-10.36-10.36-10.36s-10.36,4.65-10.36,10.36c0,5.71,4.65,10.36,10.36,10.36
		S189.53,216.24,189.53,210.53z M176.81,210.53c0-1.3,1.06-2.36,2.36-2.36s2.36,1.06,2.36,2.36c0,1.3-1.06,2.36-2.36,2.36
		S176.81,211.82,176.81,210.53z"/>
	<path class="st4" d="M220.9,270.66l-2.66,1.88c-0.22,0.16-22.37,15.65-42.77,17.4l0.68,7.97c18.47-1.59,37.32-12.72,44.1-17.1
		c6.19,4.99,23.45,17.12,45.03,17.12v-8c-23.37,0-41.83-16.88-42.01-17.05L220.9,270.66z"/>
	<path class="st4" d="M204.82,194.87v59.95l2.02,1.22c0.35,0.21,5.98,3.52,13.99,3.52c4.06,0,8.74-0.85,13.65-3.39l-3.84-7.42
		c-7.53,3.89-14.24,2.3-17.47,1.06v-59.69l-1.98-1.22c-10.47-6.48-24.15-8.57-39.55-6.02c-11.41,1.88-19.76,5.61-20.11,5.76
		l3.43,7.62C155.26,196.13,183.71,183.64,204.82,194.87z"/>
	<path class="st4" d="M263.53,210.53c0-5.71-4.65-10.36-10.36-10.36s-10.36,4.65-10.36,10.36c0,5.71,4.65,10.36,10.36,10.36
		S263.53,216.24,263.53,210.53z M250.81,210.53c0-1.3,1.06-2.36,2.36-2.36s2.36,1.06,2.36,2.36c0,1.3-1.06,2.36-2.36,2.36
		S250.81,211.82,250.81,210.53z"/>
	<path class="st4" d="M230.75,185.89l3.62,7.13c1.05-0.52,25.89-12.67,50.64,4.7l4.6-6.55
		C260.83,170.99,231.97,185.27,230.75,185.89z"/>
	<rect x="200.22" y="293.83" class="st4" width="36.81" height="8.36"/>
	<path class="st4" d="M189.19,108.31c-42.2,20.56-60.8,8.45-60.99,8.32l-0.57,0.82l-0.57,0.82c0.43,0.29,6.21,4.12,18.4,4.12
		c10.19,0,24.85-2.67,44.59-12.29L189.19,108.31z"/>
	<path class="st4" d="M179.67,128.97c0.38-0.22,38.52-22.05,57.32-21.27l0.09-2c-19.4-0.83-56.82,20.62-58.4,21.54L179.67,128.97z"
		/>
</g>
</svg>
