<?xml version="1.0" encoding="utf-8"?>
<!-- Generator: Adobe Illustrator 24.0.0, SVG Export Plug-In . SVG Version: 6.00 Build 0)  -->
<svg version="1.1" id="Layer_1" xmlns="http://www.w3.org/2000/svg" xmlns:xlink="http://www.w3.org/1999/xlink" x="0px" y="0px"
	 viewBox="0 0 450 450" style="enable-background:new 0 0 450 450;" xml:space="preserve">
<style type="text/css">
	.st0{fill:none;stroke:#231F20;stroke-width:8;stroke-miterlimit:10;}
	.st1{fill:none;stroke:#231F20;stroke-width:6.4444;stroke-miterlimit:10;}
	.st2{fill:none;stroke:#231F20;stroke-width:2;stroke-miterlimit:10;}
	.st3{fill:none;stroke:#231F20;stroke-width:4;stroke-miterlimit:10;}
	.st4{fill:#231F20;}
	.st5{fill:none;stroke:#231F20;stroke-width:8.3563;stroke-miterlimit:10;}
</style>
<g>
	<path class="st4" d="M337.71,202.11c-2.63-3.25-5.61-4.08-7.64-4.21c-6.31-0.39-10.78,1.56-14.02,4.85l3.01-36.12l-3.99-0.33
		l4,0.08c1.39-65.21-33.1-79.49-60.8-90.96c-19.22-7.96-34.39-14.24-35.12-34.94c-0.09-2.47-1.52-4.59-3.93-5.8
		c-7.8-3.93-26.49,1.07-40.81,10.93c-17.27,11.88-26.08,28.7-24.98,47.59c-15.98,11.49-25.49,32.08-27.53,59.74
		c-1.51,20.42,1.47,37.63,1.84,39.67l0.89,8.99c-3.11-2.58-7.22-4.04-12.74-3.71c-2.04,0.12-5.02,0.96-7.64,4.21
		c-6.57,8.14-6.68,25.64-4.78,38.15c0.76,5.03,0.86,9.59,0.95,13.62c0.21,9.85,0.43,20.03,14.59,20.03c0.06,0,0.12,0,0.18,0
		c5.37-0.03,10.05-2.16,13.52-6.14c0.82-0.94,1.54-1.95,2.19-3.01l4.36,43.99c2.16,25.32,12.34,48.55,28.67,65.42
		c15.18,15.68,34.51,24.66,53.05,24.66c0.02,0,0.05,0,0.07,0c20.06,0,41.08-9.3,57.68-25.52c17.83-17.43,27.95-40.4,28.5-64.7
		l3.68-44.12c0.69,1.16,1.47,2.25,2.35,3.27c3.47,3.99,8.14,6.11,13.52,6.14c0.06,0,0.12,0,0.18,0c14.16,0,14.38-10.18,14.59-20.03
		c0.09-4.03,0.19-8.59,0.95-13.62C344.38,227.74,344.28,210.24,337.71,202.11z M126.66,262.52c-1.97,2.26-4.43,3.37-7.53,3.39
		c-5.73,0.08-6.48-0.64-6.72-12.21c-0.09-4.06-0.2-9.11-1.04-14.65c-2.05-13.48-0.72-27.2,3.09-31.92c0.96-1.19,1.68-1.24,1.91-1.25
		c10.51-0.64,12.68,9.74,14.77,25.66l0.25,1.92C132.65,242.91,132.17,256.19,126.66,262.52z M215.19,41.64
		c1.29,25.15,20.11,32.94,40.01,41.18c26.77,11.08,57.1,23.64,55.87,83.29l-1.51,18.12c-4.84-15.16-11.52-29.91-15.49-38.16
		c1-18.5-4.43-32.48-16.56-42.58c-12.35-10.29-30.02-15.67-48.57-20.71c-11.4-3.1-19.39-8.72-23.75-16.7
		c-4.76-8.71-3.99-18.2-3.14-22.99C208.44,41.24,213.34,41.02,215.19,41.64z M184.95,50.88c0.09,3.47,1.55,25.42,23.59,35.34
		l0.82-1.82c-22.62-10.18-22.42-33.72-22.41-33.96l-1.25-0.03c0.18-0.11,0.37-0.23,0.55-0.34c4.82-2.91,9.49-4.94,13.65-6.32
		c-0.83,5.3-1.23,14.53,3.53,23.26c4.63,8.49,13.03,14.44,24.99,17.69c36.15,9.83,64.05,20.6,63.78,57.53
		c-0.58-1.16-1.02-2.02-1.26-2.48c-3.34-6.47-7.73-11.66-12.83-15.83c-0.71-6.69-5.76-13.1-14.77-18.67
		c-7.54-4.65-15.07-7.08-15.39-7.18l-0.61,1.91c0.27,0.09,24.83,8.08,28.42,22.13c-10.15-7.38-22.74-11.12-35.58-12.86
		c-3.75-3.3-11.08-6.32-21.6-8.84c-27-6.46-34.59-18.25-34.66-18.37l-0.85,0.53l-0.85,0.52c0.31,0.51,7.99,12.58,35.9,19.27
		c9.13,2.19,14.65,4.44,17.97,6.4c-10.32-1.07-20.64-0.98-29.8-0.55c-27.33,1.27-37.78-4.37-41.58-7.84
		c-2.28-2.08-2.89-3.95-3.06-4.76l-0.08-0.8C159.19,71.33,174.62,57.45,184.95,50.88z M134,174.75l-0.18,0.02
		c-0.5-8.41-0.52-19.15,1.06-30.14c5.72-10.7,17.01-29.07,29.63-34.69c4.67,2.58,10.68,4.39,17.99,5.42
		c-6.39,3.55-14.57,8.3-23.07,13.8c-15.08,9.75-19.95,27.27-24.69,53.03L134,174.75z M155.56,101.67c0.75,1.29,1.76,2.67,3.17,4.06
		c1.1,1.08,2.35,2.06,3.73,2.98c-7.01,3.54-14.28,10.91-21.68,22.05c-1.8,2.7-3.43,5.38-4.87,7.87
		C138.72,124.63,144.49,110.88,155.56,101.67z M261.68,377.02v-22.66h-2v23.99c-12.21,7.96-25.88,12.48-38.65,12.48
		c-0.02,0-0.04,0-0.06,0c-1.77,0-3.56-0.11-5.36-0.3v-24.3h-2v24.04c-13.44-1.94-27.27-9.09-38.85-20.6
		c5.64-10.54,8.41-26.45,9.76-39.85c2.1,4.81,4.68,8.85,7.79,10.49c7.83,4.14,18.5,7.88,31.45,7.88c9.23,0,19.62-1.9,30.98-6.91
		c3.99-1.76,6.2-7.74,9.75-18.14c0.18-0.54,0.38-1.12,0.59-1.72c0.9,13.42,3.18,32.27,8.96,45.21c-0.32,0.32-0.62,0.65-0.94,0.96
		C269.55,371.09,265.7,374.24,261.68,377.02z M186.08,306.31c7.11-8.54,19.74-12.88,37.59-12.88c18.04,0,32.21,4.27,39.59,11.81
		c-2.11,3.3-3.96,8.41-6.32,15.33c-1.54,4.51-4.1,12.01-5.62,13.5c-24.27,10.63-43.44,5.43-55.26-0.81
		C193.36,331.82,188.81,320.78,186.08,306.31z M299.22,308.33c-0.4,18.89-7.17,36.91-19.22,51.71c-7.57-20.48-7.49-54.39-7.49-54.77
		l0.01-1.32l-0.78-1.06c-11.12-15.19-34.89-17.46-48.08-17.46c-21.43,0-36.6,5.87-45.08,17.46l-0.78,1.07l0.01,1.32
		c0,0.4,0.09,38.18-8.83,58.07c-11.49-13.94-19.84-32.72-21.77-55.32l-2.84-28.62c2.22,1.31,4.68,2.13,7.03,2.92
		c6.15,2.05,11.46,3.82,13.29,12.6l3.92-0.82c-2.3-11.02-9.54-13.44-15.94-15.57c-3.59-1.2-6.73-2.26-8.85-4.67l-6.18-62.34
		c0.99-5.36,1.87-10.41,2.72-15.29c5.56-31.78,8.91-50.96,23.41-60.33c15.42-9.97,29.78-17.46,33.8-19.5
		c2.9,0.02,5.92-0.04,9.08-0.18c26.47-1.23,63.28,0.27,77.18,27.23c8.08,15.68,22.08,47.55,23.47,67.91l-5.23,62.77
		c-2.12,2.24-5.16,3.26-8.63,4.42c-6.39,2.13-13.64,4.55-15.94,15.57l3.92,0.82c1.83-8.77,7.14-10.54,13.29-12.6
		c2.31-0.77,4.73-1.58,6.91-2.85l-2.39,28.62L299.22,308.33z M334.57,239.06c-0.84,5.54-0.95,10.59-1.04,14.65
		c-0.23,10.73-0.61,12.21-6.5,12.21c-0.07,0-0.15,0-0.22,0c-3.1-0.02-5.56-1.13-7.53-3.39c-5.51-6.33-5.99-19.61-4.73-29.06
		l0.25-1.92c2.03-15.45,4.12-25.69,13.86-25.69c0.3,0,0.6,0.01,0.91,0.03c0.23,0.01,0.95,0.06,1.91,1.25
		C335.29,211.85,336.62,225.58,334.57,239.06z"/>
	<path class="st4" d="M183.94,201.76c-6.24,0-11.32,5.08-11.32,11.32c0,6.24,5.08,11.32,11.32,11.32c6.24,0,11.32-5.08,11.32-11.32
		C195.26,206.83,190.18,201.76,183.94,201.76z M183.94,216.4c-1.83,0-3.32-1.49-3.32-3.32c0-1.83,1.49-3.32,3.32-3.32
		c1.83,0,3.32,1.49,3.32,3.32C187.26,214.91,185.77,216.4,183.94,216.4z"/>
	<rect x="195.91" y="343.04" class="st4" width="2" height="25.46"/>
	<rect x="226.74" y="360.31" class="st4" width="2" height="20.64"/>
	<rect x="247.51" y="347.86" class="st4" width="2" height="10.32"/>
	<path class="st4" d="M220.2,255.53V184.3l-2.24-1.1c-21.78-10.64-39.88-8.47-51.23-4.77c-12.37,4.03-19.55,10.63-19.85,10.91
		l5.44,5.86c1-0.92,24.39-21.88,59.88-5.87v69.06l0.74,1.04c0.64,0.89,6.48,8.41,22.41,8.41c0.66,0,1.33-0.01,2.03-0.04l-0.31-7.99
		C226.83,260.21,221.92,257.03,220.2,255.53z"/>
	<path class="st4" d="M292.32,195.36l4.54-6.59c-29.99-20.64-59.56-5.14-60.8-4.47l3.79,7.04
		C240.11,191.2,266.32,177.45,292.32,195.36z"/>
	<path class="st4" d="M266,201.76c-6.24,0-11.32,5.08-11.32,11.32c0,6.24,5.08,11.32,11.32,11.32c6.24,0,11.32-5.08,11.32-11.32
		C277.32,206.83,272.25,201.76,266,201.76z M266,216.4c-1.83,0-3.32-1.49-3.32-3.32c0-1.83,1.49-3.32,3.32-3.32
		c1.83,0,3.32,1.49,3.32,3.32C269.32,214.91,267.83,216.4,266,216.4z"/>
	<path class="st4" d="M249.16,316.37l-1.3-7.89c-0.12,0.02-11.99,1.95-23.79,1.95c-11.89,0-21.25-1.88-21.44-1.92c0,0,0,0,0,0
		l-0.81,3.92l-0.81,3.92c0.41,0.08,10.24,2.08,23.06,2.08C236.54,318.42,248.65,316.45,249.16,316.37z"/>
</g>
</svg>
