<svg width="126" height="102" viewBox="0 0 126 102" fill="none" xmlns="http://www.w3.org/2000/svg">
<path d="M85.9644 31.2739H111.372" stroke="#E3000F" stroke-linecap="round"/>
<path d="M85.9644 36.7974H103.639" stroke="#E3000F" stroke-linecap="round"/>
<path d="M85.9644 42.3208H108.61" stroke="#E3000F" stroke-linecap="round" stroke-dasharray="2 4"/>
<path d="M85.9644 47.844H103.639" stroke="#E3000F" stroke-linecap="round" stroke-dasharray="2 4"/>
<path d="M52.3675 7.62805H122C123.657 7.62805 125 8.9712 125 10.6281V79.1938C125 80.8506 123.657 82.1938 122 82.1938H19.7416C18.0848 82.1938 16.7416 80.8506 16.7416 79.1938V37.1782" stroke="#E3000F" stroke-linecap="round"/>
<path d="M28.3408 11.4944V31.3786" stroke="#E3000F" stroke-linecap="round" stroke-dasharray="2 4"/>
<rect x="5.69489" y="1" width="35.3497" height="30.931" rx="3" stroke="#E3000F" stroke-linecap="round"/>
<path d="M16.7416 68.3854H125" stroke="#E3000F" stroke-linecap="round"/>
<path d="M60.3764 82.7461V100.973" stroke="#E3000F" stroke-linecap="round"/>
<path d="M82.47 82.7461V100.973" stroke="#E3000F" stroke-linecap="round"/>
<path d="M40.7684 101.25H100.973" stroke="#E3000F" stroke-linecap="round"/>
<path d="M1 26.9599L8.90103 18.1624L17.6025 25.6157L28.1854 10.9421L35.9462 18.1624L46.0156 6.79956" stroke="#E3000F" stroke-linecap="round"/>
<path d="M60 31L75 44" stroke="#E3000F" stroke-linecap="round"/>
<path d="M61.1381 44.2627L74.9466 31.0066" stroke="#E3000F" stroke-linecap="round"/>
</svg>
