<svg width="99" height="146" viewBox="0 0 99 146" fill="none" xmlns="http://www.w3.org/2000/svg">
<path d="M43 124H52" stroke="#E3000F" stroke-linecap="round"/>
<path d="M60 58C62.0765 56.4908 66.9836 54.3778 70 58" stroke="#E3000F" stroke-linecap="round"/>
<path d="M33 58C30.9235 56.4908 26.0164 54.3778 23 58" stroke="#E3000F" stroke-linecap="round"/>
<path d="M7 32.5L12.5088 103.872L13.3143 112.892C14.9374 131.069 30.168 145 48.4171 145V145C65.9554 145 80.8248 132.104 83.3054 114.742L84.8584 103.872L91 62.5" stroke="#E3000F"/>
<path d="M18.2991 37.3913C-0.293713 34.7569 -7.7486e-06 18.001 2.99998 10.5035C15.5 20.0009 19.1108 4.72231 49 1.49992C76.5 -1.46488 99.8274 16.5298 90.9736 63.0035C90.9736 63.0035 86.1779 37.3914 68.4704 32.6347C50.7629 27.8781 41.1713 40.6321 18.2991 37.3913Z" stroke="#E3000F"/>
<path d="M66 140V114C66 108.477 61.5228 104 56 104H38C32.4772 104 28 108.477 28 114V138.302" stroke="#E3000F"/>
<rect x="32" y="111" width="30" height="20" rx="5" stroke="#E3000F"/>
<circle cx="30" cy="69" r="5" stroke="#E3000F"/>
<circle cx="65" cy="69" r="5" stroke="#E3000F"/>
<path d="M88 80.8041C92.088 81.4713 95.9429 78.6982 96.6102 74.6102C97.2774 70.5221 94.5042 66.6672 90.4162 66" stroke="#E3000F"/>
<path d="M10.5707 81.9603C6.43948 82.2614 2.84638 79.1566 2.54525 75.0254C2.24412 70.8942 5.34899 67.3011 9.48016 67" stroke="#E3000F"/>
</svg>
