<?xml version="1.0" encoding="utf-8"?>
<!-- Generator: Adobe Illustrator 24.0.0, SVG Export Plug-In . SVG Version: 6.00 Build 0)  -->
<svg version="1.1" id="Layer_1" xmlns="http://www.w3.org/2000/svg" xmlns:xlink="http://www.w3.org/1999/xlink" x="0px" y="0px"
	 viewBox="0 0 450 450" style="enable-background:new 0 0 450 450;" xml:space="preserve">
<style type="text/css">
	.st0{fill:none;stroke:#231F20;stroke-width:8;stroke-miterlimit:10;}
	.st1{fill:none;stroke:#231F20;stroke-width:6.4444;stroke-miterlimit:10;}
	.st2{fill:none;stroke:#231F20;stroke-width:2;stroke-miterlimit:10;}
	.st3{fill:none;stroke:#231F20;stroke-width:4;stroke-miterlimit:10;}
	.st4{fill:#231F20;}
	.st5{fill:none;stroke:#231F20;stroke-width:8.3563;stroke-miterlimit:10;}
</style>
<g>
	<path class="st4" d="M159.23,162.24c-4.95,0-12.15,3.9-12.15,10.01s7.2,10.01,12.15,10.01c4.95,0,12.15-3.9,12.15-10.01
		S164.18,162.24,159.23,162.24z M159.23,174.26c-1.58,0-3.67-1.24-4.11-2.01c0.44-0.77,2.53-2.01,4.11-2.01s3.67,1.24,4.11,2.01
		C162.9,173.02,160.81,174.26,159.23,174.26z"/>
	<path class="st4" d="M173.45,141.47c3.89,0.68,7.76,1.58,11.55,2.73c-0.38,5.65-0.72,11.3-1.08,16.95
		c-0.43,6.65-0.78,13.3-1.14,19.95c-0.38,6.65-0.68,13.3-0.98,19.96c-0.16,3.33-0.3,6.66-0.41,9.99l-0.17,5.01
		c-0.05,1.68-0.1,3.34-0.12,5.16l-0.02,2.12l1.65,1.32c0.37,0.3,0.59,0.45,0.87,0.66l0.8,0.55c0.53,0.36,1.06,0.69,1.6,1.01
		c1.08,0.64,2.18,1.24,3.31,1.78c2.26,1.08,4.63,1.99,7.11,2.61c2.48,0.63,5.07,1,7.7,0.99c2.63-0.01,5.28-0.44,7.8-1.21l-2.23-7.68
		c-1.79,0.44-3.62,0.65-5.48,0.56c-1.85-0.05-3.73-0.36-5.58-0.89c-1.85-0.52-3.68-1.28-5.43-2.18c-0.88-0.45-1.74-0.95-2.57-1.48
		c-0.19-0.12-0.37-0.25-0.56-0.38c0.03-0.86,0.07-1.73,0.1-2.61l0.22-4.97l0.44-9.96l0.83-19.95c0.25-6.65,0.54-13.3,0.74-19.96
		l0.64-19.96l0.1-3.11l-2.83-0.82c-5.19-1.51-10.51-2.67-15.92-3.2c-2.7-0.29-5.42-0.4-8.14-0.42c-2.72,0-5.43,0.21-8.13,0.51
		c-5.39,0.66-10.7,1.97-15.71,3.98c-2.5,1.02-4.94,2.18-7.25,3.56c-2.33,1.38-4.51,2.87-6.55,4.77l1.3,1.55
		c0.99-0.65,2.14-1.28,3.26-1.83c1.13-0.57,2.28-1.09,3.45-1.56c2.34-0.94,4.72-1.77,7.16-2.41c4.85-1.32,9.84-1.96,14.81-2.17
		C163.56,140.31,168.54,140.62,173.45,141.47z"/>
	<path class="st4" d="M239.31,141.26c4.06-0.31,8.12-0.27,12.14,0.31c4.01,0.57,7.97,1.7,11.73,3.37l1.03-2
		c-3.72-2.19-7.78-3.88-12.01-4.98c-4.23-1.12-8.62-1.66-12.97-1.82c-4.36-0.17-8.69,0.03-12.97,0.36
		c-4.28,0.34-8.52,0.81-12.72,1.31l1.38,7.88C223.09,143.79,231.18,141.89,239.31,141.26z"/>
	<path class="st4" d="M246.31,173.32c0-5.71-6.84-11.08-12.15-11.08c-4.95,0-12.15,3.9-12.15,10.01s7.2,10.01,12.15,10.01
		C242.05,182.26,246.31,177.66,246.31,173.32z M234.16,174.26c-1.58,0-3.67-1.24-4.11-2.01c0.44-0.77,2.53-2.01,4.11-2.01
		c1.28,0,3.6,1.8,4.07,2.89C237.64,173.6,235.97,174.26,234.16,174.26z"/>
	<path class="st4" d="M173.5,256.94l-3.78,7.05c0.75,0.41,13.19,6.94,29.53,6.94c7.7,0,16.28-1.45,24.91-5.69l-3.52-7.18
		C197.47,269.43,173.74,257.07,173.5,256.94z"/>
	<path class="st4" d="M196.41,281.15c-4.88,0.16-11.86,1.94-17.37,9.55l3.24,2.35c4.56-6.3,10.28-7.77,14.27-7.9
		c6.82-0.24,13.39,3.25,16.33,6.79l3.08-2.55C212.5,285.23,204.92,280.87,196.41,281.15z"/>
	<path class="st4" d="M387.52,299.56c-1.09-29.29-25.2-50.33-35.51-59.33c-27.29-23.6-27.08-43.18-26.82-67.97
		c0.2-18.83,0.43-40.17-12.26-66.18c-31.45-64.44-79.87-82.45-89.25-85.4l-0.12-0.04l0,0c-0.09-0.03-0.17-0.06-0.26-0.09l0,0
		c0,0-0.01,0-0.01,0c-16.41-5.58-34.07-6.24-48.56-1.4c-10.2,3.4-17.44,9.29-21.52,17.49c-4.42,8.9-4.02,18.46-3.04,24.55
		c-4.91-5.81-14.43-12.74-29.51-6.74c-1.66,0.6-18.37,7.1-28.02,28.5c-11.52,25.56-8.21,60.71,9.83,104.49
		c1.75,10.5,5.48,22.49,11.79,36.33l1.64,19.79l0.01,0.1c1.99,18.31,6.83,25.38,14.16,36.08c1.18,1.73,2.44,3.56,3.77,5.57
		c17.92,27.06,38.32,40.77,60.62,40.77c17.05,0,32.97-7.14,46.5-20.74c0.28,1.14,0.59,2.28,0.92,3.41
		c-3.28,2.29-6.75,4.65-10.42,7.09c-13.78,8.88-29.95,26.84-30.21,48.24c-0.23,19.01,11.7,36.82,35.46,52.95
		c17.69,12.01,36.38,17.04,53.69,17.04c22.04,0,41.82-8.18,54.34-20.55c14.72-14.54,19.45-33.42,14.04-53.12
		C378.58,339.79,388.25,319.33,387.52,299.56z M231.61,86.55c-4.81-17.53,0.39-32.37,0.44-32.53l-1.88-0.68
		c-0.24,0.66-5.34,15.22-0.69,32.99c-7.52-0.73-16.14-1.23-26.1-1.71c-3.59-0.17-6.88-0.46-9.9-0.84
		c-1.87-8.99-5.49-31.96,2.94-44.72l-1.67-1.1c-4.67,7.07-6.48,17.67-5.38,31.5c0.45,5.61,1.31,10.62,2,14.04
		c-7.71-1.12-13.52-2.86-17.89-4.75c-1.97-9.56-5.47-33.71,5.65-47.28c2.6-3.17,5.87-5.58,9.76-7.22c2.32-0.25,4.68-0.38,7.08-0.38
		c8.23,0,16.83,1.48,25.09,4.34c0.08,0.03,0.14,0.07,0.22,0.09c0.2,0.06,0.44,0.14,0.7,0.23c1.1,0.4,2.19,0.82,3.28,1.27
		c-1.67,1.72-3.75,4.16-5.78,7.37c-3.99,6.3-8.46,16.8-7.1,31.06l1.99-0.19c-1.3-13.66,2.96-23.7,6.75-29.73
		c2.17-3.45,4.45-6.01,6.12-7.66c1.94,0.86,3.85,1.78,5.72,2.8c12.24,6.63,28.12,19.49,34.27,43.02c2.11,8.09,3.26,16.38,3.64,24.8
		C262.72,92.3,251,88.59,231.61,86.55z M157.83,48.8c1.43-10.82,7.96-18.24,19.43-22.06c1.86-0.62,3.78-1.13,5.75-1.54
		c-2.03,1.41-3.84,3.08-5.43,5.01c-7.7,9.39-8.66,23.37-8.12,33.45c0.3,5.5,1.07,10.47,1.76,14.04c-2.38-1.2-4.25-2.42-5.7-3.58
		c-5.42-4.31-6.1-8.25-6.12-8.33l-0.02-0.34l-0.16-0.49C159.19,64.89,156.71,57.31,157.83,48.8z M99.82,86.48
		c8.44-18.96,22.95-24.29,23.55-24.5l0.18-0.07c1.09-0.44,2.13-0.78,3.14-1.04c-0.02,1.49-0.14,3.32-0.49,5.37
		c-0.85,5.1-3.28,12.71-9.98,19.97l1.47,1.36c9.6-10.4,11.03-21.38,11.02-27.13c1.03-0.17,2.02-0.25,2.95-0.25
		c3.33,0,6.04,0.98,8.22,2.34c-0.03,5.83-1.33,17.32-9.63,29.52c-1.75,2.57-3.73,5.26-5.82,8.11c-9.81,13.38-22.56,30.76-24.83,54.4
		C92.14,126.93,92.14,103.72,99.82,86.48z M102.01,162.83c-0.27-0.85-0.5-1.68-0.75-2.52c0.47-25.8,13.81-43.98,24.8-58.97
		c2.1-2.86,4.08-5.57,5.86-8.17c8.03-11.78,9.78-22.77,9.99-29.18c2.96,2.53,4.54,5.54,4.97,6.47c6.86,21.13-3.92,32.25-17.56,46.31
		C118.07,128.37,105.24,141.6,102.01,162.83z M109.49,166.08l2.24,27.12C109.15,182.7,108.6,173.81,109.49,166.08z M194.46,318.09
		c-19.45,0-37.61-12.51-53.95-37.19c-1.36-2.05-2.64-3.92-3.84-5.68c-7.11-10.38-11.03-16.1-12.8-32.37l-8-96.74
		c5-9.13,12.14-16.49,19.18-23.75c12.08-12.45,24.51-25.28,21.45-45.87c5.93,6.78,18.77,14.81,46.5,16.13
		c45.92,2.2,59.03,4.8,67.82,23.09c-1.31,27.33-9.15,55.79-16.83,83.61c-9.52,34.52-18.59,67.42-14.84,96.25
		C229.83,306.27,214.91,318.09,194.46,318.09z M339.12,407.84c-20.08,19.84-61.23,27.48-97.91,2.58
		c-21.4-14.52-32.15-30.08-31.95-46.23c0.14-11.39,7.17-29.12,26.59-41.64c49.19-32.69,71.5-57.14,68.19-74.73
		c-2.29-12.16-15.82-15.24-16.4-15.37l-1.72,7.81c0.09,0.02,8.98,2.12,10.26,9.08c1.28,6.99-3.77,22.93-47.34,54.48
		c-7.32-29.14,2.5-64.78,12.87-102.38c11.72-42.5,23.84-86.46,13.25-127c-1.51-5.78-3.69-11.27-6.44-16.43
		c14.86,14.04,27.34,31.32,37.23,51.58c11.86,24.31,11.66,43.77,11.45,62.58c-0.26,24.73-0.51,48.08,29.57,74.1
		c15.72,13.73,31.91,30.83,32.76,53.59c0.62,16.6-7.36,34.08-23.71,52.02c-1.95-4.64-4.44-9.3-7.5-13.93l-6.67,4.41
		C357.41,366.22,356.47,390.7,339.12,407.84z"/>
	<path class="st4" d="M113.33,94.09l-1.41-1.42c-0.33,0.33-8.23,8.22-11.92,20.02l1.91,0.6C105.45,101.97,113.25,94.17,113.33,94.09
		z"/>
	<path class="st4" d="M343.57,264.43c25.53,22.87,29.2,45.12,11.21,68.02l1.57,1.24c4.59-5.85,10.79-14.98,11.54-26.78
		c0.93-14.68-6.8-29.47-22.98-43.96c-35.86-32.12-41.25-55.95-39.75-97.2c1.44-39.65-15.06-62.91-15.23-63.14l-1.62,1.17
		c0.16,0.22,16.26,22.93,14.85,61.9c-0.72,19.73-0.02,36.1,5.68,51.85C314.71,233.7,325.42,248.17,343.57,264.43z"/>
	<path class="st4" d="M255.33,282.06l1.99-0.18c-3.68-41.14,26.15-99.65,26.45-100.24l-1.78-0.92
		C281.69,181.32,251.59,240.34,255.33,282.06z"/>
	<path class="st4" d="M271.57,252.73c-0.02,0.11-1.64,10.91-0.79,23.54l2-0.13c-0.84-12.4,0.75-23,0.77-23.1L271.57,252.73z"/>
	<path class="st4" d="M275.02,385.19l1.32,1.51c38.08-33.25,46.59-74.55,46.67-74.96l-1.96-0.39
		C320.96,311.75,312.59,352.38,275.02,385.19z"/>
	<path class="st4" d="M327.26,356.58c0.21,0.26,20.57,26.03,2.87,43.73l1.41,1.41c18.97-18.97-2.51-46.13-2.73-46.4L327.26,356.58z"
		/>
	<path class="st4" d="M307.95,280.87l-1.5-1.32c-0.21,0.24-21.63,24.45-49.31,41.22c-32.93,19.94-43.11,40.62-32.03,65.09l1.82-0.83
		c-10.58-23.36-0.65-43.23,31.24-62.55C286.12,305.54,307.73,281.11,307.95,280.87z"/>
	<path class="st4" d="M244.62,395.77l-1.47,1.35c0.21,0.23,17.71,18.89,45.82,18.89c5.74,0,11.93-0.78,18.51-2.66l-0.55-1.92
		C269.4,422.14,244.86,396.03,244.62,395.77z"/>
</g>
</svg>
