<?xml version="1.0" encoding="utf-8"?>
<!-- Generator: Adobe Illustrator 24.0.0, SVG Export Plug-In . SVG Version: 6.00 Build 0)  -->
<svg version="1.1" id="Layer_1" xmlns="http://www.w3.org/2000/svg" xmlns:xlink="http://www.w3.org/1999/xlink" x="0px" y="0px"
	 viewBox="0 0 450 450" style="enable-background:new 0 0 450 450;" xml:space="preserve">
<style type="text/css">
	.st0{fill:none;stroke:#231F20;stroke-width:8;stroke-miterlimit:10;}
	.st1{fill:none;stroke:#231F20;stroke-width:6.4444;stroke-miterlimit:10;}
	.st2{fill:none;stroke:#231F20;stroke-width:2;stroke-miterlimit:10;}
	.st3{fill:none;stroke:#231F20;stroke-width:4;stroke-miterlimit:10;}
	.st4{fill:#231F20;}
	.st5{fill:none;stroke:#231F20;stroke-width:8.3563;stroke-miterlimit:10;}
</style>
<g>
	<path class="st4" d="M184.55,162.21c2.45-0.26,4.94-0.23,7.46,0.04c2.52,0.26,5.06,0.79,7.62,1.35c2.56,0.57,5.13,1.26,7.7,1.98
		l12.57,3.56c-0.14,4.58-0.24,9.15-0.37,13.73c-0.16,5.57-0.24,11.14-0.35,16.71c-0.12,5.57-0.17,11.14-0.22,16.71
		c-0.08,5.57-0.05,11.14-0.08,16.71l-0.01,2.24l1.76,1.3c0.25,0.19,0.35,0.25,0.5,0.35l0.4,0.26c0.26,0.16,0.52,0.32,0.78,0.46
		c0.52,0.29,1.03,0.55,1.55,0.81c1.04,0.49,2.09,0.92,3.15,1.29c2.13,0.73,4.34,1.23,6.56,1.47c2.23,0.26,4.47,0.26,6.68,0.03
		c2.21-0.25,4.37-0.72,6.44-1.38l-2.23-7.68c-1.64,0.41-3.29,0.67-4.93,0.76c-1.64,0.11-3.28,0.05-4.89-0.19
		c-1.61-0.23-3.18-0.65-4.69-1.22c-0.74-0.28-1.46-0.6-2.14-0.96c0.07-4.74,0.16-9.49,0.18-14.23c0.04-5.56,0.09-11.13,0.07-16.69
		c-0.01-5.56,0.01-11.13-0.06-16.69c-0.06-5.57-0.07-11.13-0.17-16.7l-0.06-3.18l-2.9-0.66c-5.26-1.2-10.5-2.55-15.87-3.68
		c-5.36-1.12-10.85-2.22-16.63-2.36c-2.88-0.06-5.84,0.12-8.73,0.77c-2.89,0.66-5.69,1.75-8.21,3.24
		c-5.04,3.01-8.9,7.21-12.15,11.63l1.53,1.33c3.86-3.7,7.99-7.11,12.6-9.14C179.73,163.18,182.11,162.5,184.55,162.21z"/>
	<path class="st4" d="M259.67,167.75c4.49-1.35,8.88-2.74,13.25-3.54c4.34-0.8,8.72-0.9,12.55,0.78c3.84,1.67,6.88,5.13,9.16,9.04
		l2-1.02c-1.01-2.19-2.21-4.33-3.76-6.29c-1.54-1.96-3.47-3.71-5.73-5.01c-2.26-1.29-4.81-2.05-7.34-2.42
		c-2.54-0.36-5.07-0.35-7.52-0.16c-4.92,0.39-9.6,1.38-14.18,2.25c-4.58,0.88-9.07,1.69-13.5,2.07l1.11,7.92
		C250.55,170.45,255.17,169.11,259.67,167.75z"/>
	<path class="st4" d="M211.3,191.62c0-6.92-11.64-10.7-17.63-10.7c-6.33,0-17.62,3.58-17.62,10.7c0,6.38,11,12.37,17.62,12.37
		S211.3,198,211.3,191.62z M193.68,195.99c-3.12,0-7.6-2.6-9.21-4.28c1.56-1.18,5.63-2.8,9.21-2.8c3.45,0,7.48,1.64,9.14,2.86
		C201.17,193.46,196.75,195.99,193.68,195.99z"/>
	<path class="st4" d="M263.34,273.16l1.52-1.77c-2.83-2.42-17.44-14.31-27.17-10.79c-0.46,0.17-0.88,0.34-1.27,0.5
		c-1.63,0.66-2.31,0.93-7.8-1.16c-9.66-3.68-25.93,8.94-29.09,11.5l1.29,1.59c-0.88,0.28-1.67,0.82-2.25,1.6
		c-1.17,1.57-1.21,3.7-0.1,5.31c2.97,4.28,13.72,17.53,32.58,17.53c1.23,0,2.5-0.06,3.79-0.18c5.29-0.48,23.12-3.21,30.69-17.92
		c0.87-1.69,0.61-3.69-0.65-5.1C264.42,273.78,263.9,273.41,263.34,273.16z M225.76,267.4c7.6,2.9,10.1,2.54,13.65,1.11
		c0.31-0.12,0.64-0.26,1-0.39c1.76-0.63,6.54,0.54,12.68,4.46c-16.01,4-31.63,1.8-40.88-0.33
		C217.85,268.78,223.39,266.49,225.76,267.4z M201.08,280.62l0.97-2.9c0.86,0.29,1.97,0.64,3.28,1.02c-0.1,0.23-0.23,0.46-0.38,0.67
		C204.05,280.61,202.5,281.09,201.08,280.62z M234.1,289.31c-12.4,1.15-20.88-4.93-25.52-9.69c6.19,1.57,15.21,3.24,25.53,3.24
		c6.57,0,13.66-0.68,20.89-2.5C251.48,284,245.1,288.3,234.1,289.31z M258.91,279.61c-0.08-0.09-0.15-0.18-0.21-0.28
		c1.05-0.32,2.11-0.66,3.17-1.04l0.86,2.24C261.39,281.04,259.86,280.67,258.91,279.61z"/>
	<path class="st4" d="M275.32,215.43c-3.22,0-3.22,5,0,5C278.54,220.43,278.54,215.43,275.32,215.43z"/>
	<path class="st4" d="M288.66,229.96c-3.22,0-3.22,5,0,5C291.87,234.96,291.88,229.96,288.66,229.96z"/>
	<path class="st4" d="M266.51,234.01c-3.22,0-3.22,5,0,5C269.72,239.01,269.73,234.01,266.51,234.01z"/>
	<path class="st4" d="M198.87,220.19c3.22,0,3.22-5,0-5C195.65,215.19,195.64,220.19,198.87,220.19z"/>
	<path class="st4" d="M199.1,231.63c-3.22,0-3.22,5,0,5C202.32,236.63,202.33,231.63,199.1,231.63z"/>
	<path class="st4" d="M181,226.39c-3.22,0-3.22,5,0,5C184.22,231.39,184.23,226.39,181,226.39z"/>
	<path class="st4" d="M174.57,211.62c-3.22,0-3.22,5,0,5C177.79,216.62,177.8,211.62,174.57,211.62z"/>
	<path class="st4" d="M181.72,239.72c-3.22,0-3.22,5,0,5C184.94,244.72,184.94,239.72,181.72,239.72z"/>
	<path class="st4" d="M289.9,210.67c-3.22,0-3.22,5,0,5C293.11,215.67,293.12,210.67,289.9,210.67z"/>
	<path class="st4" d="M284.9,242.82c-3.22,0-3.22,5,0,5C288.11,247.82,288.12,242.82,284.9,242.82z"/>
	<path class="st4" d="M287.3,191.62c0-6.92-11.64-10.7-17.63-10.7c-6.33,0-17.62,3.58-17.62,10.7c0,6.38,11,12.37,17.62,12.37
		S287.3,198,287.3,191.62z M269.68,195.99c-3.12,0-7.6-2.6-9.21-4.28c1.56-1.18,5.63-2.8,9.21-2.8c3.45,0,7.48,1.64,9.14,2.86
		C277.17,193.46,272.75,195.99,269.68,195.99z"/>
	<path class="st4" d="M439.01,283.24c-1.33-1.74-2.98-3.9-3.02-5.05c-0.04-1.16,1.45-3.44,2.65-5.28c2.09-3.21,4.47-6.85,3.83-10.91
		c-0.57-3.7-3.75-6.06-6.56-8.13c-1.09-0.81-2.88-2.13-3.31-2.83c0.15-0.83,1.43-2.74,2.21-3.9c1.92-2.87,4.1-6.12,3.4-9.73
		c-0.71-3.69-3.99-5.92-6.89-7.88c-1.12-0.76-2.96-2.01-3.42-2.7c0.11-0.83,1.31-2.8,2.04-4c1.8-2.95,3.83-6.3,2.97-9.88
		c-0.88-3.66-4.28-5.73-7.27-7.56c-1.19-0.72-3.15-1.92-3.58-2.58c-0.13-0.89,1.09-3.5,1.76-4.92c1.52-3.23,3.24-6.88,2.13-10.51
		c-1.14-3.73-4.67-5.84-7.79-7.7c-1.32-0.79-3.79-2.26-4.09-3c-0.28-0.8,0.8-3.6,1.38-5.11c1.29-3.33,2.74-7.11,1.36-10.66
		c-1.42-3.65-5.12-5.48-8.39-7.09c-1.38-0.68-3.95-1.95-4.31-2.66c-0.35-0.78,0.48-3.66,0.93-5.21c0.99-3.45,2.11-7.35,0.4-10.77
		c-1.68-3.34-5.47-4.43-8.82-5.39c-1.14-0.33-2.98-0.85-3.7-1.3c-0.02-0.87,0.5-2.78,0.83-3.97c0.91-3.32,1.93-7.07-0.02-10.18
		c-2-3.18-5.9-3.88-9.33-4.49c-1.17-0.21-3.06-0.55-3.83-0.92c-0.12-0.85,0.19-2.82,0.38-4.04c0.53-3.41,1.14-7.27-1.18-10.15
		c-2.37-2.93-6.32-3.15-9.82-3.34c-1.21-0.07-3.16-0.17-3.94-0.46c-0.25-0.82-0.22-2.87-0.21-4.14c0.05-3.48,0.11-7.43-2.62-9.99
		c-2.76-2.59-6.74-2.27-10.24-1.99c-1.25,0.1-3.28,0.26-4.09,0.07c-0.37-0.75-0.66-2.79-0.83-4.05c-0.48-3.47-1.03-7.4-4.15-9.52
		c-3.12-2.12-6.99-1.18-10.4-0.35c-1.23,0.3-3.23,0.77-4.06,0.72c-0.48-0.68-1.09-2.63-1.46-3.83c-1.04-3.36-2.23-7.17-5.67-8.76
		c-3.48-1.6-7.13,0.36-10.07,1.95c-0.71,0.38-1.77,0.95-2.51,1.26c-0.47-0.76-1.05-2.08-1.43-2.94c-1.35-3.06-2.88-6.53-6.38-7.3
		c-3.83-0.84-6.96,1.99-9.48,4.27c-0.61,0.55-1.53,1.38-2.17,1.85c-0.67-0.58-1.63-1.7-2.27-2.43c-2.22-2.58-4.71-5.49-8.4-5.13
		c-3.95,0.41-5.96,4.17-7.57,7.2c-0.42,0.79-1.08,2.03-1.55,2.66c-0.89-0.18-2.52-0.91-3.56-1.38c-3.21-1.44-6.86-3.08-10.19-1.2
		c-3.51,1.98-4.06,6.28-4.5,9.74c-0.14,1.06-0.35,2.75-0.62,3.51c-0.84,0.22-2.8,0.16-4.01,0.12c-3.43-0.11-7.34-0.23-9.7,2.61
		c-2.41,2.91-1.85,6.76-1.15,10.07c-1.58-1.44-3.91-2.11-6.04-2.73c-0.84-0.24-2.1-0.61-2.92-0.95c0.24-0.71,0.62-1.63,0.88-2.26
		c1.29-3.12,2.91-7.01,0.67-10.18c-2.15-3.06-6.02-2.83-9.45-2.63c-0.79,0.05-1.95,0.12-2.77,0.09c-0.07-0.75-0.08-1.8-0.09-2.51
		c-0.04-3.41-0.09-7.66-3.53-9.63c-3.28-1.88-6.85,0.1-9.72,1.7c-0.76,0.42-1.9,1.06-2.69,1.38c-0.4-0.61-0.9-1.53-1.27-2.21
		c-1.64-3.03-3.68-6.81-7.7-7.05c-3.61-0.2-5.88,2.83-7.87,5.52c-0.51,0.69-1.27,1.72-1.86,2.35c-0.57-0.44-1.3-1.1-1.85-1.59
		c-2.51-2.25-5.64-5.05-9.4-4.12c-3.43,0.84-4.79,4.32-5.98,7.38c-0.33,0.85-0.84,2.15-1.25,2.89c-0.82-0.26-2.11-0.87-2.95-1.27
		c-3.21-1.53-6.85-3.26-10.37-1.64c-3.27,1.51-4.29,5.2-5.19,8.46c-0.3,1.1-0.78,2.84-1.21,3.62c-0.84-0.09-2.39-0.55-3.38-0.85
		c-3.35-1.01-7.15-2.15-10.33-0.1c-3.03,1.95-3.57,5.74-4.04,9.09c-0.16,1.11-0.4,2.85-0.71,3.69c-0.01,0-0.03,0-0.04,0
		c-0.86,0-2.43-0.28-3.44-0.46c-3.42-0.61-7.29-1.3-10.2,1.05c-2.89,2.34-3.28,6.27-3.62,9.73c-0.15,1.49-0.39,3.96-0.83,4.6
		c-0.71,0.33-3.02,0.32-4.42,0.32c-3.57-0.01-7.62-0.02-10.33,2.7c-2.62,2.63-2.61,6.59-2.59,10.07c0.01,1.49,0.02,3.96-0.34,4.62
		c-0.68,0.41-2.99,0.63-4.39,0.76c-3.54,0.34-7.55,0.73-9.98,3.69c-2.36,2.88-1.96,6.82-1.62,10.29c0.15,1.5,0.4,4.01,0.09,4.65
		c-0.8,1.08-3.46,1.98-5.81,2.77c-3.71,1.25-7.92,2.68-10.25,6.21c-2.24,3.41-1.89,7.73-1.59,11.55c0.21,2.55,0.44,5.45-0.31,6.74
		c-0.68,1.17-3.22,2.37-5.47,3.43c-3.54,1.67-7.55,3.55-9.45,7.32c-1.84,3.64-1.02,7.9-0.29,11.66c0.49,2.51,1.04,5.36,0.44,6.72
		c-0.55,1.24-2.95,2.72-5.07,4.01c-3.33,2.04-7.1,4.35-8.59,8.29c-1.33,3.53,0.23,7.22,1.61,10.48c0.59,1.38,1.68,3.96,1.51,4.69
		c-0.34,0.7-2.58,2.02-3.91,2.8c-3.09,1.82-6.59,3.88-7.65,7.59c-1.03,3.63,0.83,7.17,2.47,10.3c0.7,1.33,2,3.81,1.9,4.55
		c-0.28,0.72-2.41,2.22-3.67,3.11c-2.93,2.06-6.25,4.4-7,8.18c-0.74,3.7,1.4,7.08,3.28,10.07c0.8,1.27,2.29,3.64,2.24,4.42
		c-0.2,1.28-2.3,3.26-3.98,4.86c-2.65,2.51-5.64,5.35-6.12,9.18c-0.5,4.04,1.79,7.63,3.82,10.8c1.13,1.76,2.67,4.17,2.59,5.3
		c-0.08,1.08-1.94,3.21-3.3,4.77c-2.5,2.86-5.33,6.11-5.42,10.23c-0.08,3.86,2.5,7.08,4.77,9.93c1.45,1.82,3.26,4.08,3.3,5.41
		c0.03,0.96-1.64,3.3-2.75,4.85c-2.24,3.14-4.78,6.71-4.5,10.99c0.47,5.54,4.51,7.4,6.93,8.52c2.19,1.01,3.21,1.54,3.79,3.39
		c0,0.72-0.77,2.63-1.28,3.9c-1.4,3.48-3.13,7.81-1.26,11.76c1.65,3.48,5.55,4.69,8.99,5.76c1.6,0.5,4.27,1.33,4.76,2.01
		c0.36,0.65,0.3,3.12,0.26,4.59c-0.1,3.66-0.22,8.21,2.89,11.08c2.94,2.71,7.12,2.24,10.79,1.83c1.53-0.17,4.03-0.46,4.96-0.13
		c0.42,0.69,0.8,2.72,1.04,3.97c0.59,3.13,1.26,6.68,4.17,8.38c3.29,1.93,7.05,0.35,10.06-0.92c0.94-0.39,2.4-1.01,3.24-1.19
		c0.4,0.62,0.93,1.72,1.3,2.5c1.56,3.24,3.51,7.27,7.75,7.98c3.4,0.57,6.08-1.92,8.45-4.11c0.83-0.77,2.26-2.09,3.12-2.56
		c0.57,0.51,1.4,1.49,1.99,2.18c2.21,2.59,4.95,5.8,8.9,5.8c0.04,0,0.08,0,0.12,0c5.45-0.14,7.21-4.26,8.25-6.72
		c0.9-2.1,1.36-2.95,2.59-3.42c0.68,0.11,2.21,0.77,3.25,1.21c3.4,1.47,7.63,3.29,11.45,1.19c3.28-1.8,3.92-5.7,4.49-9.13
		c0.21-1.29,0.61-3.65,1.05-4.35c0.72-0.21,2.59-0.22,3.73-0.22c3.58-0.01,8.04-0.03,10.59-3.33c2.3-2.97,1.37-6.81,0.55-10.2
		c-0.29-1.18-0.73-3.03-0.75-3.99c0.81-0.21,2.21-0.37,3.12-0.47c3.11-0.34,6.32-0.7,7.91-3.45c1.77-3.06,0.27-6.42-1.06-9.39
		c-0.16-0.35-0.36-0.8-0.54-1.24c0.34-0.03,0.67-0.05,0.97-0.07c3.33-0.23,7.48-0.51,9.42-3.85c1.64-2.83,0.15-5.95-1.16-8.71
		c-0.28-0.59-0.67-1.4-0.96-2.11c0.46-0.07,0.95-0.13,1.36-0.18c3.29-0.42,7.37-0.94,9.11-4.31c1.66-3.21-0.01-6.65-1.48-9.68
		c-0.18-0.36-0.39-0.8-0.58-1.22c0.69-0.08,1.45-0.14,2.02-0.18c3.19-0.24,6.5-0.49,8.24-3.2c1.97-3.08,0.58-6.83-0.54-9.86
		c-0.13-0.36-0.29-0.78-0.44-1.2c0.68-0.03,1.43-0.03,1.98-0.02c3.15-0.01,6.71,0.02,8.66-2.71c0.11-0.16,0.21-0.31,0.3-0.47
		c12.94,12.16,27.93,19.37,41.37,19.86v0.02l0.67,0v-0.01c11.46-0.35,24.05-5.57,35.53-14.56c1.2,2.59,4.13,3.24,6.98,3.84
		c0.35,0.08,0.79,0.17,1.23,0.27c-0.05,0.05-0.09,0.11-0.13,0.16c-2.1,2.48-4.7,5.57-3.59,9.06c1,3.15,4.41,4.02,7.42,4.79
		c0.23,0.06,0.49,0.13,0.77,0.2c-0.06,0.06-0.11,0.12-0.16,0.18c-2.23,2.45-4.75,5.22-3.82,8.63c0.97,3.82,4.91,5.31,8.08,6.51
		c0.83,0.32,2.11,0.8,2.82,1.19c-0.14,0.82-0.58,2.17-0.87,3.06c-1.06,3.25-2.38,7.3,0.08,10.43c2.28,2.91,6.15,2.71,9.55,2.54
		c1.02-0.05,2.61-0.13,3.5-0.02c0.12,0.76,0.15,2,0.18,2.9c0.11,3.39,0.24,7.62,3.44,9.89c2.84,2.02,6.41,0.98,9.56,0.07
		c1.12-0.33,2.93-0.85,3.74-0.85c0.01,0,0.02,0,0.03,0c0.73,0.71,1.61,3.14,2.14,4.64c1.21,3.36,2.58,7.18,6.05,8.76
		c3.82,1.74,7.83,0.11,11.36-1.32c1.37-0.56,3.65-1.48,4.37-1.38c0.87,0.25,2.59,2.48,3.62,3.82c2.24,2.91,4.77,6.21,8.7,6.55
		c0.24,0.02,0.47,0.03,0.7,0.03c3.88,0,6.86-2.81,9.51-5.31c1.11-1.04,2.96-2.79,3.7-2.94c0.82-0.11,3.21,1.19,4.64,1.97
		c3.32,1.8,7.08,3.84,10.93,2.44c3.92-1.42,5.6-5.44,7.08-8.98c0.68-1.63,1.71-4.1,2.47-4.58c0.7-0.44,3.44-0.27,5.07-0.17
		c3.81,0.24,8.14,0.51,11.2-2.33c2.95-2.73,3.05-6.96,3.14-10.69c0.04-1.7,0.11-4.55,0.67-5.27c0.5-0.63,3.27-1.35,4.75-1.74
		c3.64-0.95,7.77-2.02,9.84-5.55c2-3.41,0.98-7.46,0.08-11.03c-0.42-1.65-1.12-4.42-0.76-5.23c0.44-1.01,2.85-2.47,4.6-3.53
		c3.3-2,7.05-4.26,8.26-8.25c1.19-3.91-0.62-7.84-2.21-11.3c-0.92-2-2.08-4.5-1.86-5.65c0.21-1.11,2.25-3.08,3.74-4.52
		c2.76-2.66,5.88-5.67,6.2-9.79C443.97,289.74,441.34,286.29,439.01,283.24z M180.39,302.26c-3.26-0.01-7.3-0.02-9.45,2.99
		c-1.95,2.74-0.71,6.07,0.38,9.01c0.22,0.61,0.54,1.44,0.76,2.17c-0.53,0.05-1.09,0.1-1.56,0.13c-3.3,0.25-7.42,0.56-9.3,3.85
		c-1.68,2.94-0.12,6.17,1.27,9.02c0.3,0.61,0.71,1.47,1.01,2.19c-0.78,0.15-1.76,0.28-2.46,0.37c-3.17,0.41-6.45,0.83-7.99,3.67
		c-1.8,3.32-0.03,7.03,1.39,10.01c0.14,0.29,0.3,0.62,0.45,0.96c-0.69,0.08-1.46,0.13-2.04,0.17c-3.02,0.21-6.45,0.44-8.15,3.2
		c-1.87,3.02-0.36,6.39,0.97,9.36c0.19,0.42,0.43,0.97,0.65,1.5c-0.38,0.05-0.76,0.09-1.08,0.12c-3.35,0.37-7.53,0.83-9.32,4.33
		c-1.6,3.13-0.72,6.76,0.05,9.97c0.24,0.99,0.61,2.52,0.67,3.4c-0.94,0.23-2.85,0.24-4.06,0.25c-3.18,0.01-6.47,0.02-8.85,2.06
		c-2.65,2.28-3.26,5.96-3.8,9.2c-0.17,1-0.42,2.56-0.71,3.38c-1.02-0.12-3.03-0.98-4.18-1.48c-2.82-1.21-5.73-2.47-8.56-1.59
		c-5.08,1.59-6.72,5.45-7.81,8c-0.26,0.62-0.65,1.53-0.9,1.84c-0.73-0.39-2.15-2.06-2.93-2.98c-2.09-2.44-4.25-4.97-7.44-5.13
		c-3.73-0.17-6.77,2.6-9.19,4.83c-0.55,0.51-1.29,1.2-1.88,1.66c-0.57-0.82-1.27-2.26-1.69-3.14c-1.32-2.72-2.68-5.54-5.47-6.61
		c-3.17-1.21-6.47,0.18-9.38,1.4c-0.77,0.32-1.9,0.8-2.71,1.04c-0.21-0.75-0.41-1.82-0.56-2.61c-0.63-3.33-1.41-7.46-4.81-9.38
		c-3.01-1.7-6.69-1.29-9.94-0.92c-1.4,0.16-3.68,0.42-4.5,0.18c-0.4-0.81-0.33-3.47-0.3-4.93c0.09-3.32,0.18-6.75-1.72-9.41
		c-2.07-2.92-5.71-4.04-8.93-5.04c-1.34-0.42-3.56-1.1-4.17-1.64c-0.25-0.92,0.92-3.83,1.49-5.26c1.2-3,2.45-6.1,1.55-9.08
		c-1.65-5.46-5.56-7.26-8.14-8.45c-2.23-1.03-2.24-1.15-2.3-1.84c-0.09-1.36,1.65-3.79,3.04-5.75c2.13-2.99,4.33-6.08,4.23-9.72
		c-0.11-4.01-2.73-7.29-5.04-10.18c-1.21-1.52-3.05-3.81-3.03-4.78c0.02-1.21,1.92-3.39,3.44-5.13c2.33-2.67,4.97-5.69,5.25-9.43
		c0.29-3.79-1.9-7.21-3.83-10.22c-1.17-1.83-2.77-4.32-2.62-5.49c0.12-0.99,2.27-3.03,3.69-4.37c2.69-2.55,5.74-5.44,6.37-9.4
		c0.58-3.67-1.52-7-3.38-9.95c-0.83-1.31-2.21-3.51-2.21-4.21c0.26-0.75,2.54-2.36,3.77-3.23c2.8-1.97,5.98-4.21,6.84-7.74
		c0.87-3.61-0.96-7.1-2.58-10.18c-0.72-1.38-1.93-3.67-1.87-4.37c0.32-0.73,2.73-2.15,4.02-2.91c2.95-1.74,6.3-3.71,7.44-7.16
		c1.16-3.52-0.38-7.15-1.73-10.35c-0.61-1.43-1.62-3.82-1.49-4.53c0.52-1.37,3.05-2.92,5.28-4.29c3.12-1.91,6.66-4.08,8.21-7.62
		c1.6-3.65,0.8-7.8,0.09-11.46c-0.46-2.38-1.03-5.33-0.43-6.52c0.66-1.31,3.35-2.58,5.72-3.69c3.3-1.56,7.05-3.32,8.98-6.66
		c2-3.45,1.66-7.67,1.36-11.39c-0.19-2.41-0.43-5.41,0.3-6.52c0.81-1.23,3.63-2.19,6.13-3.03c3.45-1.17,7.36-2.49,9.66-5.57
		c2.19-2.94,1.8-6.81,1.46-10.23c-0.14-1.37-0.36-3.62-0.12-4.42c0.74-0.43,3.09-0.66,4.53-0.8c3.35-0.32,7.16-0.69,9.54-3.33
		c2.46-2.72,2.44-6.62,2.42-10.06c-0.01-1.37-0.02-3.62,0.29-4.39c0.78-0.36,3.16-0.36,4.6-0.35c3.35,0.02,7.16,0.02,9.79-2.35
		c2.72-2.46,3.11-6.35,3.45-9.77c0.13-1.27,0.33-3.32,0.67-4.17c0.86-0.05,2.65,0.26,3.78,0.47c3.21,0.57,6.85,1.22,9.63-0.8
		c2.89-2.1,3.42-5.86,3.89-9.18c0.14-0.98,0.35-2.49,0.61-3.33c0.92,0.1,2.51,0.58,3.54,0.89c3.09,0.93,6.6,1.98,9.57,0.33
		c3.13-1.74,4.14-5.4,5.03-8.64c0.26-0.93,0.65-2.36,1-3.15c0.9,0.24,2.43,0.96,3.41,1.43c2.86,1.36,6.1,2.91,9.23,1.79
		c3.31-1.17,4.67-4.66,5.87-7.73c0.21-0.54,0.48-1.22,0.73-1.81c0.62,0.49,1.34,1.13,1.85,1.59c2.37,2.13,4.82,4.32,7.97,3.97
		c3.4-0.38,5.59-3.33,7.51-5.93c0.3-0.4,0.67-0.9,1.02-1.35c0.38,0.63,0.79,1.38,1.08,1.92c1.47,2.72,2.99,5.53,5.93,6.36
		c3.14,0.89,6.22-0.83,8.95-2.34c0.37-0.21,0.85-0.47,1.32-0.72c0.03,0.61,0.03,1.26,0.04,1.76c0.04,3.13,0.08,6.37,2.32,8.48
		c2.37,2.23,5.89,2.02,9,1.84c0.46-0.03,1.07-0.06,1.64-0.08c-0.24,0.64-0.52,1.33-0.73,1.84c-1.22,2.94-2.48,5.98-1.13,8.81
		c1.52,3.18,5.14,4.23,8.33,5.15c0.49,0.14,1.1,0.32,1.64,0.49c-0.11,0.08-0.21,0.15-0.3,0.21c-1.39,0.98-3.41,2.39-4.44,5.02
		c-0.22,0.5-0.38,1.06-0.48,1.68c-0.01,0.07-0.03,0.15-0.04,0.22c-0.01,0.04-0.01,0.08-0.02,0.12c-0.5,3.32,0.92,5.72,1.89,7.35
		c0.28,0.48,0.71,1.19,0.74,1.41c0,0-0.01,0.06-0.07,0.19c-0.71,0.17-2.04,0.29-2.98,0.37c-3.31,0.3-7.44,0.67-9.65,3.72
		c-2,2.76-1.17,6.34-0.45,9.5c0.21,0.89,0.51,2.23,0.61,3.12c-0.86,0.13-2.2,0.17-3.09,0.19c-3.25,0.09-6.93,0.2-9.13,2.83
		c-2.3,2.75-1.8,6.55-1.36,9.89c0.07,0.56,0.17,1.25,0.23,1.88c-0.68-0.2-1.43-0.46-2.02-0.66c-2.92-1-6.23-2.12-9.27-1.25
		c-3.18,0.91-4.84,4.07-6.3,6.86c-0.54,1.04-1.41,2.69-2.01,3.35c-0.8-0.26-2.23-1.04-3.14-1.54c-3.05-1.67-6.84-3.75-10.46-2.1
		c-3.58,1.63-4.29,5.8-4.87,9.15c-0.2,1.18-0.53,3.08-0.9,3.84c-0.71,0.17-2.25,0.22-3.3,0.26c-3.66,0.12-8.21,0.27-10.49,3.98
		l1.31,0.81l-1-0.55c-5.81,10.59-4.33,19.13-2.75,28.18c0.57,3.27,1.15,6.65,1.44,10.32c0.84,16.76,4.77,34.1,12,53.03l0.11,0.26
		c4.24,9.11,7.01,27.57,7.18,28.78c0.89,7.98,5.48,17.55,12.53,26.62c0.28,1.52,0.89,3.05,1.46,4.48c0.16,0.39,0.35,0.88,0.53,1.37
		C181.18,302.26,180.76,302.26,180.39,302.26z M231.11,318.94c-26.26-0.84-54.11-31.75-56.09-50.09l-0.02-0.14
		c-0.12-0.83-2.97-20.46-7.8-30.94c-6.91-18.1-10.65-34.62-11.44-50.5l-0.01-0.11c-0.31-4.08-0.93-7.66-1.54-11.13
		c-1.49-8.55-2.56-14.75,1.8-22.79c0.95-0.18,2.49-0.23,3.51-0.26c2.99-0.1,6.09-0.2,8.28-2.12c2.43-2.14,3.03-5.58,3.55-8.61
		c0.14-0.83,0.35-2.07,0.59-2.9c0.89,0.34,2.16,1.04,3.01,1.51c2.88,1.58,5.87,3.22,9,2.4c3.65-0.95,5.47-4.43,7.08-7.5
		c0.5-0.94,1.21-2.31,1.69-2.9c0.97,0.04,3.05,0.75,4.22,1.15c3.47,1.18,7.8,2.66,10.79-0.39c2.44-2.49,1.95-6.19,1.52-9.45
		c-0.13-1.01-0.34-2.56-0.31-3.48c0.83-0.13,2.2-0.17,3.1-0.2c3.39-0.1,7.24-0.21,9.45-3.09c2.23-2.9,1.36-6.68,0.59-10.01
		c-0.2-0.85-0.49-2.14-0.58-2.96c0.91-0.25,2.54-0.39,3.6-0.49c3.29-0.29,6.69-0.6,8.56-3.31c1.51-2.19,1.89-4.15,1.74-5.84
		c0.53,0.1,1,0.23,1.35,0.41c-0.18,0.65-0.5,1.55-0.73,2.21c-1.14,3.21-2.57,7.21-0.32,10.42c1.97,2.82,5.63,2.86,8.86,2.9
		c0.76,0.01,1.85,0.02,2.67,0.1c-0.11,0.71-0.31,1.59-0.44,2.21c-0.73,3.35-1.57,7.14,0.92,9.87c2.4,2.64,6.13,2.17,9.42,1.76
		c0.81-0.1,2.02-0.25,2.83-0.27c0.15,0.88,0.19,2.32,0.22,3.26c0.11,3.51,0.23,7.5,3.25,9.8c2.99,2.28,6.82,1.33,10.2,0.5
		c1.07-0.27,2.77-0.69,3.62-0.7c0.4,0.74,0.89,2.39,1.19,3.42c1,3.41,2.14,7.27,5.73,8.68c3.57,1.41,6.99-0.67,10.01-2.5
		c0.96-0.58,2.48-1.51,3.29-1.76c0.61,0.55,1.61,1.92,2.24,2.78c0.53,0.72,1.09,1.49,1.7,2.24c7.5,14.62,7.33,27.18,6.88,32.05
		l-0.01,0.13c-1.37,22.32-7.91,41.79-13.47,56.29c-4.83,10.43-7.68,29.94-7.8,30.77l-0.02,0.14
		C285.02,287.69,257.31,318.17,231.11,318.94z M431.91,297.88c-2.52,2.43-5.37,5.18-6.05,8.8c-0.69,3.66,0.99,7.28,2.46,10.47
		c0.85,1.84,2.13,4.62,1.83,5.62c-0.32,1.06-2.88,2.61-4.75,3.74c-2.96,1.79-6.32,3.83-7.79,7.16c-1.45,3.32-0.5,7.08,0.33,10.4
		c0.38,1.5,1.08,4.3,0.78,5.02c-0.45,0.68-3.38,1.45-4.96,1.86c-3.22,0.84-6.88,1.79-9.03,4.54c-2.2,2.81-2.29,6.63-2.37,10.01
		c-0.04,1.54-0.11,4.41-0.58,5.02c-0.65,0.5-3.65,0.32-5.27,0.22c-3.26-0.2-6.95-0.43-9.83,1.38c-2.9,1.83-4.33,5.25-5.59,8.26
		c-0.59,1.42-1.69,4.04-2.4,4.52c0,0-0.01,0-0.01,0c-0.84,0-3.06-1.2-4.4-1.93c-2.85-1.55-6.08-3.3-9.47-2.87
		c-3.26,0.42-5.76,2.78-8.18,5.06c-1.11,1.05-3.14,2.97-3.97,3.12c-0.74-0.37-2.21-2.28-3.1-3.44c-2.05-2.67-4.37-5.68-7.8-6.65
		c-3.21-0.9-6.43,0.41-9.54,1.68c-1.46,0.59-4.13,1.68-4.97,1.47c-0.58-0.56-1.4-2.83-1.89-4.2c-1.17-3.25-2.49-6.94-5.65-8.88
		c-3.09-1.9-6.78-0.83-10.03,0.12c-0.76,0.22-1.79,0.52-2.55,0.68c-0.14-0.91-0.19-2.28-0.21-3.2c-0.1-3.21-0.21-6.53-2.6-8.67
		c-2.57-2.29-6.24-2.11-9.49-1.94c-0.67,0.03-1.63,0.08-2.39,0.08c0.2-0.82,0.53-1.85,0.77-2.58c0.94-2.89,2.01-6.17,0.66-9.04
		c-1.35-2.87-4.56-4.09-7.39-5.16c-0.67-0.25-1.61-0.61-2.36-0.95c0.39-0.46,0.84-0.96,1.18-1.33c2.12-2.33,4.53-4.98,3.54-8.23
		c-1.06-3.49-4.79-4.44-8.08-5.29c-0.12-0.03-0.26-0.07-0.39-0.1c0.25-0.3,0.49-0.59,0.7-0.83c2.08-2.47,4.24-5.02,3.18-8.14
		c-1.25-3.69-5.4-4.56-8.73-5.27c-0.13-0.03-0.26-0.06-0.4-0.09c0.22-0.21,0.45-0.42,0.64-0.59c1.38-1.26,4.03-3.7,3.5-7.04
		c8.83-10.06,14.68-21.16,15.69-30.24c0.18-1.21,2.95-19.54,7.18-28.6l0.11-0.26c5.78-15.03,12.59-35.29,14.03-58.73
		c0.52-5.67,0.71-20.12-7.87-36.68c0.21,0.01,0.36,0.06,0.41,0.09c-0.17-0.09-0.41-0.31-0.67-0.59c-0.28-0.53-0.57-1.07-0.87-1.6
		l-0.3,0.17c-0.29-0.38-0.56-0.75-0.79-1.06c-1.83-2.51-3.9-5.35-7.08-6c-3.27-0.66-6.35,1.21-9.07,2.85
		c-0.8,0.49-2.02,1.23-2.84,1.59c-0.38-0.83-0.79-2.25-1.07-3.18c-0.9-3.05-1.91-6.51-4.79-8.18c-2.94-1.71-6.49-0.83-9.62-0.05
		c-0.95,0.23-2.39,0.59-3.28,0.68c-0.17-0.9-0.22-2.45-0.25-3.46c-0.1-3.21-0.21-6.86-2.66-9.18c-2.5-2.36-6.15-1.91-9.37-1.51
		c-0.56,0.07-1.32,0.16-1.99,0.22c0.12-0.73,0.31-1.58,0.44-2.2c0.67-3.08,1.44-6.56-0.62-9.16c-2.21-2.79-5.99-2.83-9.33-2.87
		c-0.57-0.01-1.3-0.01-1.93-0.05c0.22-0.83,0.59-1.86,0.85-2.59c1.05-2.95,2.14-6.01,0.51-8.67c-1.64-2.67-4.14-3.8-6.52-4.36
		c2.46-0.73,5.17-2.05,6.97-5.03c1.58-2.61,0.89-5.77,0.22-8.83c-0.24-1.08-0.64-2.94-0.64-3.95c0.86-0.09,2.28-0.04,3.21-0.01
		c3.26,0.1,6.96,0.22,9.58-2.03c2.41-2.07,2.84-5.38,3.25-8.58c0.13-1.01,0.32-2.53,0.58-3.45c0.84,0.26,2.08,0.82,2.9,1.19
		c2.9,1.31,6.2,2.79,9.4,1.8c3-0.92,4.54-3.81,6.04-6.61c0.36-0.67,0.87-1.62,1.32-2.34c0.52,0.54,1.1,1.22,1.52,1.71
		c2.1,2.44,4.48,5.21,7.87,5.45c3.17,0.23,5.63-2,8-4.15c0.6-0.54,1.47-1.33,2.16-1.85c0.35,0.68,0.74,1.56,1.01,2.18
		c1.33,3.01,2.83,6.42,6.13,7.57c3.08,1.08,6.19-0.59,8.93-2.07c0.85-0.46,2.17-1.17,2.99-1.46c0.46,0.84,0.98,2.52,1.32,3.6
		c0.98,3.16,2.09,6.74,5.13,8.46c3.05,1.73,6.71,0.84,9.93,0.06c1.18-0.29,3.05-0.78,3.95-0.72c0.35,0.82,0.61,2.73,0.78,3.93
		c0.46,3.29,0.98,7.02,3.72,9.23c2.73,2.19,6.47,1.89,9.76,1.63c1.22-0.1,3.17-0.25,4.05-0.08c0.21,0.86,0.19,2.78,0.17,3.98
		c-0.05,3.34-0.1,7.13,2.3,9.74c2.37,2.57,6.1,2.77,9.4,2.96c1.19,0.07,3.07,0.17,3.93,0.44c0.07,0.88-0.21,2.69-0.39,3.83
		c-0.52,3.31-1.11,7.06,0.96,9.97c2.03,2.85,5.72,3.51,8.98,4.1c1.18,0.21,3.05,0.55,3.87,0.92c-0.03,0.88-0.51,2.65-0.82,3.77
		c-0.89,3.25-1.9,6.93-0.14,10.05c1.72,3.07,5.34,4.1,8.53,5.02c1.23,0.35,3.24,0.93,3.9,1.41c0.17,0.9-0.56,3.45-0.96,4.86
		c-0.97,3.38-2.07,7.21-0.56,10.65c1.48,3.34,4.99,5.08,8.09,6.61c1.46,0.72,4.17,2.06,4.47,2.81c0.22,0.77-0.81,3.45-1.37,4.89
		c-1.27,3.29-2.71,7.03-1.48,10.59c1.2,3.47,4.57,5.49,7.55,7.27c1.39,0.83,3.99,2.38,4.23,3.15c0.17,0.79-1.06,3.39-1.71,4.79
		c-1.51,3.2-3.21,6.83-2.23,10.48c0.94,3.47,4.22,5.48,7.11,7.25c1.19,0.72,3.13,1.91,3.63,2.6c-0.15,0.83-1.29,2.7-1.99,3.85
		c-1.79,2.94-3.82,6.28-3.04,9.87c0.76,3.53,3.95,5.69,6.76,7.6c1.15,0.78,3.03,2.06,3.5,2.78c-0.18,0.82-1.41,2.65-2.16,3.77
		c-1.92,2.86-4.1,6.11-3.47,9.73c0.62,3.57,3.72,5.86,6.46,7.89c1.16,0.86,3.08,2.28,3.42,2.99c0.1,1.07-1.54,3.59-2.63,5.26
		c-1.91,2.93-4.08,6.25-3.94,9.94c0.13,3.69,2.54,6.84,4.66,9.61c1.24,1.62,3.11,4.07,3.03,5.14
		C435.6,294.32,433.38,296.46,431.91,297.88z"/>
	<path class="st4" d="M402.85,273.86c-2.66-2.36-5.42-4.8-5.46-6.83c-0.04-2.17,2.68-4.8,5.31-7.34c3.11-3.01,6.05-5.84,5.76-8.87
		c-0.3-3.15-3.97-5.54-7.52-7.85c-2.99-1.94-6.08-3.95-6.42-5.96c-0.37-2.13,1.93-5.13,4.15-8.03c2.63-3.44,5.12-6.69,4.38-9.65
		c-0.77-3.06-4.75-4.88-8.6-6.63c-3.25-1.48-6.61-3.01-7.25-4.95c-0.68-2.05,1.15-5.35,2.92-8.55c2.1-3.79,4.08-7.37,2.92-10.18
		c-1.2-2.92-5.4-4.14-9.45-5.33c-3.43-1-6.98-2.04-7.88-3.87c-0.96-1.94,0.4-5.47,1.72-8.89c1.55-4.03,3.02-7.84,1.5-10.46
		c-1.59-2.74-5.91-3.4-10.09-4.04c-3.53-0.54-7.17-1.1-8.3-2.79c-1.21-1.82-0.3-5.52,0.59-9.1c1.03-4.17,2.01-8.11,0.2-10.5
		c-1.93-2.55-6.32-2.7-10.57-2.84c-3.54-0.12-7.2-0.24-8.49-1.76c-1.45-1.71-0.96-5.54-0.48-9.24c0.55-4.21,1.06-8.19-0.96-10.32
		c-2.26-2.38-6.71-2.05-11.01-1.72c-3.47,0.26-7.05,0.53-8.43-0.78c-1.75-1.66-1.66-5.64-1.57-9.49c0.09-4.11,0.18-8-1.93-9.8
		c-2.79-2.38-7.46-1.5-11.97-0.66c-3.14,0.59-6.39,1.2-7.63,0.25c-3.6-2.74-3.28-6.09-2.94-9.65c0.33-3.41,0.67-6.93-3.01-9.2
		l-1.05,1.7c2.49,1.53,2.41,3.77,2.07,7.3c-0.34,3.57-0.77,8.02,3.72,11.43c1.95,1.48,5.32,0.85,9.21,0.12
		c3.86-0.72,8.24-1.55,10.3,0.21c1.39,1.19,1.31,4.77,1.23,8.24c-0.1,4.29-0.2,8.72,2.19,10.99c2.02,1.92,5.88,1.63,9.96,1.32
		c3.84-0.29,7.81-0.59,9.41,1.1c1.37,1.44,0.89,5.12,0.43,8.69c-0.54,4.13-1.09,8.4,0.93,10.79c1.86,2.2,5.79,2.33,9.95,2.47
		c3.78,0.13,7.69,0.26,9.04,2.05c1.23,1.63,0.33,5.28-0.54,8.81c-0.99,4-2.01,8.13-0.31,10.69c1.62,2.42,5.52,3.02,9.66,3.66
		c3.72,0.57,7.56,1.16,8.67,3.07c1.04,1.79-0.32,5.32-1.64,8.74c-1.47,3.82-3,7.77-1.65,10.5c1.3,2.62,5.09,3.73,9.11,4.9
		c3.6,1.05,7.33,2.14,8.16,4.17c0.79,1.92-1.04,5.24-2.82,8.45c-1.98,3.57-4.02,7.27-3.07,10.14c0.92,2.77,4.51,4.41,8.32,6.14
		c3.42,1.56,6.95,3.17,7.49,5.29c0.5,2.02-1.8,5.03-4.03,7.94c-2.48,3.24-5.04,6.6-4.53,9.59c0.49,2.87,3.8,5.02,7.3,7.3
		c3.15,2.05,6.41,4.17,6.62,6.36c0.2,2.06-2.53,4.69-5.16,7.24c-2.94,2.84-5.98,5.78-5.92,8.82c0.06,2.9,3.01,5.52,6.13,8.29
		c2.82,2.5,5.73,5.08,5.62,7.29c-0.11,2.06-3.17,4.26-6.14,6.39c-3.33,2.39-6.78,4.87-7.15,7.9c-0.35,2.88,2.2,5.88,4.91,9.06
		c2.44,2.87,4.97,5.83,4.55,8.01l1.96,0.38c0.6-3.12-2.25-6.46-4.99-9.68c-2.31-2.71-4.69-5.51-4.44-7.52
		c0.27-2.16,3.35-4.38,6.33-6.52c3.51-2.52,6.82-4.9,6.97-7.92C409.31,279.58,406.03,276.67,402.85,273.86z"/>
	<path class="st4" d="M361.45,242.88c3.26-2.14,6.34-4.17,6.22-6.57c-0.13-2.58-3.55-4.35-7.16-6.22c-2.5-1.3-5.62-2.91-5.77-4.16
		c-0.17-1.44,2.6-3.88,4.84-5.84c2.92-2.57,5.68-4.99,5.23-7.35c-0.5-2.56-4.15-3.83-8.02-5.17c-2.64-0.92-5.93-2.06-6.26-3.25
		c-0.39-1.43,2.02-4.28,3.95-6.57c2.6-3.08,4.84-5.74,4.05-7.96c-0.9-2.51-4.76-3.22-8.85-3.96c-2.7-0.49-6.07-1.1-6.55-2.18
		c-0.65-1.45,1.33-4.74,2.92-7.38c2.02-3.36,3.77-6.26,2.67-8.24c-1.43-2.58-5.79-2.62-10.01-2.65c-2.39-0.02-5.67-0.05-6.2-0.82
		c-1.76-2.58-0.25-5.34,1.36-8.25c1.52-2.76,3.25-5.89,0.85-8.39l-1.44,1.38c1.31,1.37,0.42,3.19-1.16,6.04
		c-1.66,3.01-3.72,6.75-1.26,10.35c1.12,1.64,4.23,1.67,7.84,1.7c3.3,0.03,7.41,0.06,8.28,1.62c0.54,0.97-1.3,4.01-2.64,6.24
		c-2.11,3.51-4.11,6.83-3.03,9.23c0.92,2.04,4.21,2.64,8.02,3.33c3.04,0.55,6.81,1.24,7.32,2.67c0.41,1.14-1.96,3.95-3.69,6
		c-2.58,3.06-5.02,5.94-4.35,8.38c0.61,2.21,3.97,3.38,7.53,4.61c2.87,0.99,6.44,2.23,6.72,3.66c0.24,1.22-2.43,3.57-4.58,5.46
		c-2.98,2.62-5.8,5.1-5.5,7.58c0.28,2.3,3.46,3.95,6.83,5.69c2.68,1.39,6.01,3.11,6.08,4.54c0.06,1.26-2.92,3.22-5.32,4.8
		c-3.31,2.18-6.44,4.23-6.48,6.72c-0.04,2.33,2.91,4.39,6.03,6.58c2.46,1.72,5.52,3.87,5.41,5.29c-0.1,1.26-3.31,2.84-5.89,4.1
		c-3.56,1.74-6.92,3.38-7.26,5.85c-0.33,2.32,2.36,4.73,5.2,7.28c2.23,2,5.01,4.49,4.73,5.89c-0.25,1.25-3.62,2.45-6.33,3.41
		c-3.73,1.33-7.26,2.58-7.87,4.99c-0.58,2.28,1.84,4.96,4.4,7.81c2,2.22,4.49,4.99,4.08,6.34c-0.38,1.22-3.85,2.08-6.65,2.77
		c-3.85,0.95-7.48,1.84-8.32,4.18c-0.8,2.22,1.37,5.13,3.66,8.21c1.78,2.4,4,5.38,3.47,6.68c-0.49,1.19-4.03,1.74-6.87,2.19
		c-3.92,0.61-7.62,1.19-8.65,3.45c-0.99,2.15,0.94,5.23,2.98,8.49c1.58,2.53,3.55,5.67,2.92,6.93l1.79,0.9
		c1.14-2.26-0.87-5.48-3-8.89c-1.51-2.42-3.4-5.43-2.86-6.6c0.59-1.28,4.22-1.85,7.14-2.31c3.86-0.6,7.5-1.17,8.41-3.4
		c0.96-2.35-1.31-5.4-3.71-8.64c-1.7-2.28-3.82-5.13-3.38-6.33c0.48-1.33,4.05-2.21,6.92-2.92c3.79-0.93,7.37-1.82,8.08-4.12
		c0.75-2.44-1.8-5.27-4.5-8.27c-1.9-2.11-4.27-4.74-3.95-5.98c0.35-1.38,3.82-2.61,6.6-3.6c3.68-1.31,7.15-2.54,7.62-4.91
		c0.5-2.51-2.35-5.06-5.36-7.76c-2.11-1.89-4.74-4.25-4.56-5.51c0.2-1.41,3.5-3.03,6.16-4.33c3.51-1.71,6.82-3.33,7.01-5.74
		c0.2-2.56-2.93-4.76-6.26-7.08c-2.32-1.62-5.2-3.64-5.18-4.91C355.89,246.53,358.97,244.51,361.45,242.88z"/>
	<path class="st4" d="M150.31,87.33c0.1-3.27,0.21-6.65,1.47-7.61c3.66-2.78,6.48-1.39,9.75,0.23c2.84,1.4,6.05,2.99,9.58,0.82
		l-1.05-1.7c-2.59,1.59-4.93,0.43-7.65-0.91c-3.37-1.67-7.2-3.56-11.84-0.02c-2.02,1.54-2.13,5.06-2.26,9.13
		c-0.12,3.85-0.26,8.21-2.29,9.95c-1.37,1.17-4.86,0.72-8.23,0.29c-4.36-0.56-8.87-1.15-11.33,1.19c-2.09,1.98-1.79,5.94-1.47,10.12
		c0.29,3.76,0.58,7.66-1,9.33c-1.35,1.42-4.99,1.35-8.51,1.27c-4.27-0.09-8.7-0.19-10.79,2.27c-1.92,2.27-1.18,6.24-0.4,10.44
		c0.68,3.64,1.38,7.41,0.05,9.17c-1.22,1.61-4.88,1.95-8.42,2.27c-4.22,0.39-8.59,0.79-10.35,3.43c-1.67,2.51-0.46,6.39,0.83,10.51
		c1.1,3.5,2.23,7.13,1.14,9.01c-1.02,1.76-4.63,2.56-8.12,3.33c-4.13,0.91-8.4,1.85-9.8,4.68c-1.35,2.72,0.38,6.43,2.2,10.35
		c1.54,3.32,3.14,6.75,2.31,8.74c-0.78,1.89-4.24,3.17-7.59,4.41c-3.96,1.47-8.06,2.98-9.05,5.98c-0.96,2.89,1.28,6.32,3.65,9.95
		c2,3.06,4.06,6.22,3.54,8.31c-0.5,1.98-3.73,3.75-6.86,5.47c-3.71,2.03-7.55,4.14-8.08,7.25c-0.52,3,2.2,6.05,5.08,9.28
		c2.43,2.73,4.95,5.55,4.74,7.71c-0.19,2.03-3.12,4.26-5.95,6.42c-3.37,2.57-6.85,5.23-6.92,8.4c-0.06,3.03,3.07,5.64,6.39,8.4
		c2.82,2.35,5.73,4.77,5.84,6.94c0.11,2.02-2.46,4.65-4.95,7.2c-2.96,3.03-6.03,6.17-5.64,9.32c0.37,2.99,3.83,5.14,7.49,7.41
		c3.12,1.94,6.36,3.94,6.77,6.08l1.96-0.38c-0.58-3.01-4.19-5.24-7.68-7.4c-3.1-1.92-6.31-3.91-6.56-5.95
		c-0.27-2.2,2.45-4.98,5.09-7.68c2.92-2.98,5.67-5.8,5.52-8.7c-0.16-3.04-3.41-5.75-6.56-8.37c-2.81-2.34-5.72-4.76-5.67-6.83
		c0.05-2.2,3.14-4.56,6.13-6.85c3.32-2.53,6.45-4.92,6.73-7.82c0.29-3.02-2.52-6.18-5.24-9.23c-2.44-2.74-4.96-5.57-4.61-7.61
		c0.37-2.17,3.78-4.03,7.08-5.84c3.67-2.01,7.13-3.91,7.84-6.74c0.74-2.94-1.57-6.47-3.8-9.89c-2-3.07-4.08-6.25-3.43-8.23
		c0.69-2.08,4.33-3.43,7.85-4.73c3.93-1.45,7.64-2.83,8.75-5.53c1.16-2.8-0.63-6.64-2.35-10.34c-1.54-3.32-3.14-6.76-2.22-8.62
		c0.97-1.97,4.77-2.8,8.44-3.61c4.09-0.9,7.95-1.75,9.42-4.28c1.53-2.64,0.26-6.69-0.97-10.61c-1.09-3.48-2.22-7.08-1.08-8.8
		c1.23-1.85,5.11-2.2,8.87-2.55c4.16-0.38,8.09-0.74,9.83-3.06c1.87-2.47,1.08-6.68,0.32-10.75c-0.66-3.56-1.35-7.23-0.04-8.78
		c1.47-1.73,5.41-1.64,9.22-1.56c4.13,0.09,8.04,0.18,10-1.89c2.19-2.31,1.86-6.66,1.54-10.85c-0.27-3.54-0.54-7.19,0.85-8.52
		c1.77-1.68,5.8-1.16,9.69-0.65c3.98,0.51,7.73,1,9.78-0.75C150.02,96.43,150.17,91.8,150.31,87.33z"/>
	<path class="st4" d="M123.67,156.2c-3.29-0.98-7.38-2.2-9.97,1.6c-1.18,1.73,0.24,4.63,1.88,7.99c1.42,2.9,3.18,6.51,2.32,8.07
		c-0.54,0.97-3.87,1.3-6.54,1.57c-4.02,0.4-8.18,0.81-9.31,3.31c-0.96,2.12,1.06,4.92,3.39,8.17c1.77,2.46,3.96,5.52,3.45,6.94
		c-0.41,1.15-3.76,2.03-6.44,2.74c-3.98,1.05-7.74,2.04-8.43,4.58c-0.63,2.3,1.94,4.91,4.66,7.68c2.09,2.13,4.69,4.77,4.41,6.2
		c-0.24,1.23-3.45,2.61-6.03,3.73c-3.75,1.62-7.29,3.14-7.6,5.72c-0.29,2.38,2.64,4.61,5.75,6.97c2.36,1.79,5.3,4.03,5.22,5.46
		c-0.06,1.26-3.07,3.09-5.48,4.56c-3.47,2.11-6.75,4.1-6.71,6.68c0.04,2.41,3.24,4.23,6.64,6.16c2.57,1.46,5.78,3.28,5.89,4.7
		c0.1,1.27-2.65,3.46-4.87,5.23c-3.17,2.53-6.16,4.91-5.8,7.45c0.33,2.39,3.74,3.81,7.34,5.32c2.73,1.14,6.12,2.56,6.4,3.96
		c0.25,1.25-2.25,3.75-4.25,5.76c-2.85,2.86-5.55,5.56-4.92,8.04c0.59,2.34,4.13,3.39,7.87,4.5c2.83,0.84,6.36,1.89,6.78,3.25
		c0.38,1.22-1.86,3.97-3.66,6.17c-2.55,3.12-4.96,6.07-4.1,8.47c0.82,2.27,4.43,2.99,8.26,3.75c2.9,0.58,6.51,1.3,7.04,2.61
		c0.49,1.19-1.51,4.12-3.11,6.48c-2.26,3.33-4.4,6.47-3.35,8.78c1,2.19,4.67,2.62,8.54,3.07c2.94,0.34,6.59,0.77,7.22,2.03l1.79-0.9
		c-1.12-2.22-4.84-2.66-8.78-3.12c-2.86-0.33-6.42-0.75-6.96-1.92c-0.59-1.28,1.5-4.35,3.18-6.82c2.16-3.18,4.21-6.18,3.31-8.36
		c-0.94-2.3-4.62-3.03-8.5-3.81c-2.82-0.56-6.33-1.26-6.77-2.47c-0.48-1.33,1.88-4.21,3.77-6.53c2.42-2.97,4.72-5.78,4.02-8.02
		c-0.73-2.38-4.32-3.44-8.12-4.58c-2.76-0.82-6.19-1.84-6.5-3.08c-0.35-1.37,2.28-4.01,4.4-6.13c2.7-2.71,5.25-5.27,4.8-7.57
		c-0.48-2.44-3.94-3.88-7.59-5.41c-2.65-1.11-5.95-2.49-6.13-3.75c-0.2-1.41,2.72-3.74,5.07-5.61c2.98-2.38,5.8-4.62,5.62-6.95
		c-0.2-2.48-3.45-4.33-6.89-6.28c-2.5-1.42-5.61-3.18-5.62-4.45c-0.02-1.43,3.18-3.38,5.75-4.94c3.25-1.98,6.32-3.84,6.44-6.16
		c0.13-2.49-2.86-4.76-6.01-7.16c-2.28-1.73-5.12-3.89-4.97-5.14c0.17-1.43,3.63-2.92,6.41-4.12c3.48-1.5,6.76-2.92,7.2-5.18
		c0.48-2.47-2.16-5.15-4.95-7.99c-2-2.03-4.48-4.56-4.16-5.75c0.39-1.42,4.06-2.39,7.02-3.17c3.78-1,7.05-1.86,7.82-4
		c0.87-2.42-1.36-5.51-3.71-8.78c-1.55-2.15-3.67-5.11-3.19-6.18c0.65-1.45,4.55-1.83,7.68-2.14c3.78-0.37,7.04-0.69,8.09-2.59
		c1.37-2.47-0.48-6.26-2.27-9.92c-1.01-2.08-2.55-5.21-2.02-5.98c1.65-2.42,4.03-1.92,7.75-0.81c2.89,0.86,6.16,1.83,8.4-0.51
		l-1.44-1.38C128.75,157.59,126.77,157.12,123.67,156.2z"/>
</g>
</svg>
