<?xml version="1.0" encoding="utf-8"?>
<!-- Generator: Adobe Illustrator 24.0.0, SVG Export Plug-In . SVG Version: 6.00 Build 0)  -->
<svg version="1.1" id="Layer_1" xmlns="http://www.w3.org/2000/svg" xmlns:xlink="http://www.w3.org/1999/xlink" x="0px" y="0px"
	 viewBox="0 0 450 450" style="enable-background:new 0 0 450 450;" xml:space="preserve">
<style type="text/css">
	.st0{fill:none;stroke:#231F20;stroke-width:8;stroke-miterlimit:10;}
	.st1{fill:none;stroke:#231F20;stroke-width:6.4444;stroke-miterlimit:10;}
	.st2{fill:none;stroke:#231F20;stroke-width:2;stroke-miterlimit:10;}
	.st3{fill:none;stroke:#231F20;stroke-width:4;stroke-miterlimit:10;}
	.st4{fill:#231F20;}
	.st5{fill:none;stroke:#231F20;stroke-width:8.3563;stroke-miterlimit:10;}
</style>
<g>
	<path class="st4" d="M316.41,260.12c-0.08-2.93-0.16-6.26-0.16-9.77c0-12.29-2.03-28.44-7.75-33.47c-0.16-0.14-0.32-0.26-0.48-0.38
		c1.13-1.62,2.03-3.56,2.68-5.84l0.04-0.15c0.23-0.93,5.53-23.01,4.15-49.14c-1.86-35.27-15.21-60.69-38.61-73.51
		c-24.12-13.21-60.21-24.77-95.2-4.77c-16.11,9.21-25.96,21.7-29.81,27.26c-2.7-0.54-5.6-0.02-8.46,1.6
		c-5.9,3.33-11.24,10.93-15.04,21.4c-4.18,11.49-6.13,25.44-5.64,40.33c0.04,1.28,0.08,2.57,0.12,3.89
		c0.44,15.06,0.9,30.58,7.02,39.02c-0.12,0.1-0.25,0.18-0.37,0.29c-5.72,5.03-7.75,21.18-7.75,33.47c0,3.51-0.09,6.84-0.16,9.77
		c-0.26,9.97-0.42,15.99,2.76,19.26c1.28,1.31,2.96,2.01,4.86,2.01c2.95,0,6.69-1.01,10.06-4.92v10.1
		c0,44.14,35.91,80.05,80.05,80.05s80.05-35.91,80.05-80.05v-10.06c3.36,3.88,7.09,4.88,10.03,4.88c1.9,0,3.58-0.69,4.86-2.01
		C316.83,276.11,316.67,270.09,316.41,260.12z M260.97,323.77c-1.09,5.52-4.28,9.34-8.32,9.97c-3.88,0.6-7.77-1.88-10.39-6.63
		c-6.5-11.78-17.54-11.79-17.94-11.78h-11.2c-0.45,0.01-11.49-0.01-17.99,11.78c-2.62,4.76-6.51,7.24-10.39,6.63
		c-4.04-0.63-7.23-4.45-8.32-9.97c-5.55-28-20-47.53-29.78-52.05v-97.85c0-13.19,3.56-25.94,10.3-37.13
		c6.61,2.28,17.79,1.44,36.63-9.11c23.28-13.03,51.86-13.56,72.81-1.36c15.45,9.01,24.01,23.7,24.11,41.37
		c0.25,47.21,0.25,50,0.25,50.12v0v53.96C280.96,276.22,266.53,295.75,260.97,323.77z M148.06,127.56c0.5,1.69,1.28,3.24,2.32,4.58
		c-7.68,12.55-11.73,26.9-11.73,41.73v40.45c-0.59-0.23-1.13-0.56-1.63-0.99c-0.2-0.18-0.4-0.37-0.59-0.57
		C129.01,149.07,144.39,130.91,148.06,127.56z M159.71,129.2c5.38-4.32,16.96-12.66,33.02-19.15c3.54-1.43,22.24-8.46,42.75-6.71
		c15.71,1.35,28.46,7.38,38.1,17.97c-1.02-0.68-2.07-1.33-3.16-1.96c-11.3-6.58-24.55-9.86-38.14-9.86
		c-14.48,0-29.34,3.73-42.61,11.15C174.4,129.19,164.63,130.77,159.71,129.2z M302.97,208.54c-0.75,2.56-1.85,4.26-3.29,5.04
		c-0.31,0.17-0.63,0.29-0.94,0.37c0,0,0-0.01,0-0.01c6.43-13.3,7.32-43.55,7.21-61.82C309.42,180.2,303.35,206.93,302.97,208.54z
		 M185.33,89.87c25.44-14.4,54.75-12.72,87.09,5c17.92,9.82,27.02,26.78,31.28,44.64c0.31,9.42,1.2,49.62-4.99,69.03
		c-0.03-7-0.1-19.31-0.21-40.95c-0.09-16.55-6.53-30.85-18.38-41.27c-10.38-14.93-25.29-23.32-44.47-24.96
		c-20.97-1.81-40.06,5.38-43.67,6.84c-17.01,6.87-29.1,15.82-34.25,20.03c-0.12-0.08-0.23-0.17-0.33-0.26
		c-1.37-1.18-2.04-3.08-2.02-5.42c7.48-7.25,37.67-33.7,75.74-29.22l0.23-1.99c-36.37-4.27-65.65,18.97-75.59,28.1
		c0.18-0.8,0.4-1.62,0.71-2.47C157.83,114.79,167.55,99.93,185.33,89.87z M146.73,118.91c0.39-0.22,0.73-0.37,1.06-0.49
		c-0.47,2.45-0.54,4.79-0.22,6.94c-2.21,1.54-20.55,16.51-13.6,83.28c-3.05-7.49-3.43-20.45-3.74-31.32
		c-0.04-1.32-0.08-2.63-0.12-3.92C129.11,142.85,139.23,123.15,146.73,118.91z M138.57,246.49l-0.02,1.68
		c-0.17,13.51-4.17,24.22-9.24,25.15c-0.63-2.17-0.47-8.12-0.34-13c0.08-2.98,0.17-6.36,0.17-9.98c0-15.01,2.91-25.05,4.76-27.2
		C138.88,224.67,138.7,237.23,138.57,246.49z M277.93,327.53v-10.34h-2v13.08c-11.05,14.44-27.43,24.6-46.17,27.5v-26.31h-2v26.57
		c-2.97,0.37-5.99,0.59-9.06,0.59c-21.31,0-40.47-9.3-53.68-24.05v-15.28h-2v12.96c-10.23-12.44-16.38-28.36-16.38-45.68v-5.24
		c2.64,2.32,6.15,6.21,9.68,11.85v10.39h2v-7.01c4.02,7.2,7.86,16.72,10.25,28.77c1.77,8.91,7.49,15.17,14.94,16.32
		c7.23,1.12,14.37-2.97,18.62-10.67c2.51-4.55,5.9-6.38,8.25-7.13v19.79h2v-20.25c0.39-0.05,0.64-0.06,0.69-0.06h11.25
		c0.28,0,6.81,0.17,10.93,7.64c3.79,6.86,9.86,10.86,16.25,10.86c0.79,0,1.58-0.06,2.37-0.18c7.45-1.16,13.17-7.41,14.94-16.32
		c2.52-12.69,6.64-22.56,10.89-29.89v11.45h2v-14.7c3.32-5.1,6.56-8.67,9.04-10.85v5.24C290.76,301.77,286.01,315.89,277.93,327.53z
		 M308.07,273.32c-5.07-0.93-9.07-11.64-9.24-25.15l-0.02-1.68c-0.13-9.26-0.31-21.81,4.68-23.34c1.85,2.15,4.76,12.19,4.76,27.2
		c0,3.62,0.09,7,0.17,9.98C308.54,265.2,308.69,271.15,308.07,273.32z"/>
	<path class="st4" d="M266.79,205.76c0-5.71-4.65-10.36-10.36-10.36c-5.71,0-10.36,4.65-10.36,10.36s4.65,10.36,10.36,10.36
		C262.14,216.12,266.79,211.47,266.79,205.76z M254.07,205.76c0-1.3,1.06-2.36,2.36-2.36c1.3,0,2.36,1.06,2.36,2.36
		s-1.06,2.36-2.36,2.36C255.13,208.12,254.07,207.06,254.07,205.76z"/>
	<path class="st4" d="M173.39,205.76c0,5.71,4.65,10.36,10.36,10.36c5.71,0,10.36-4.65,10.36-10.36s-4.65-10.36-10.36-10.36
		C178.03,195.4,173.39,200.05,173.39,205.76z M186.1,205.76c0,1.3-1.06,2.36-2.36,2.36c-1.3,0-2.36-1.06-2.36-2.36
		s1.06-2.36,2.36-2.36C185.04,203.4,186.1,204.46,186.1,205.76z"/>
	<rect x="217.7" y="334.82" class="st4" width="2" height="17.63"/>
	<path class="st4" d="M209.42,191.91v53.88l2.28,1.09c1.28,0.61,11.47,5.33,20.58,5.33c1.29,0,2.57-0.09,3.79-0.31l-1.39-7.88
		c-5.13,0.91-12.85-1.58-17.26-3.37v-52.14l-1.15-1.17c-0.26-0.26-26.3-26.07-61.21-2.05l4.53,6.59
		C185.37,174.15,204.6,187.8,209.42,191.91z"/>
	<path class="st4" d="M229.57,185.24l4.39,6.69c0.23-0.15,23.47-15.05,44.12,3.05l5.27-6.02
		C258.18,166.9,229.85,185.06,229.57,185.24z"/>
	<path class="st4" d="M219.7,265.71c-2.02-0.02-29.46-0.02-47.65,19.39l5.84,5.47c16.02-17.08,41.49-16.85,41.74-16.86l0.08,0
		l0.08,0c0.26,0.01,25.65-0.3,41.74,16.86l5.84-5.47C249.16,265.69,221.71,265.67,219.7,265.71z"/>
	<path class="st4" d="M208.92,298.44l-1.72,3.61l-1.73,3.61c0.43,0.21,7.28,3.42,16.37,3.42c4.69,0,9.98-0.86,15.28-3.43l-3.49-7.2
		C221.59,304.28,209.04,298.5,208.92,298.44z"/>
	<path class="st4" d="M221.86,286.53c-12.92,0-26.5-2.04-26.63-2.07l-1.21,7.91c0.58,0.09,14.29,2.16,27.84,2.16
		c12.77,0,24.94-2.08,25.45-2.17l-1.37-7.88C245.83,284.5,233.96,286.53,221.86,286.53z"/>
	<path class="st4" d="M291.91,128.36l1.8-0.87c-11.88-24.76-42.06-32.12-42.37-32.19l-0.46,1.95
		C251.18,97.33,280.46,104.48,291.91,128.36z"/>
</g>
</svg>
