<svg width="9" height="9" viewBox="0 0 9 9" fill="none" xmlns="http://www.w3.org/2000/svg">
<path d="M5.28418 4.35449L8.10059 1.56543L8.6748 0.991211C8.75684 0.90918 8.75684 0.772461 8.6748 0.663086L8.07324 0.0615234C7.96387 -0.0205078 7.82715 -0.0205078 7.74512 0.0615234L4.38184 3.45215L0.991211 0.0615234C0.90918 -0.0205078 0.772461 -0.0205078 0.663086 0.0615234L0.0615234 0.663086C-0.0205078 0.772461 -0.0205078 0.90918 0.0615234 0.991211L3.45215 4.35449L0.0615234 7.74512C-0.0205078 7.82715 -0.0205078 7.96387 0.0615234 8.07324L0.663086 8.6748C0.772461 8.75684 0.90918 8.75684 0.991211 8.6748L4.38184 5.28418L7.1709 8.10059L7.74512 8.6748C7.82715 8.75684 7.96387 8.75684 8.07324 8.6748L8.6748 8.07324C8.75684 7.96387 8.75684 7.82715 8.6748 7.74512L5.28418 4.35449Z" fill="white"/>
</svg>
