<svg width="141" height="148" viewBox="0 0 141 148" fill="none" xmlns="http://www.w3.org/2000/svg">
<path d="M53 35.5V106C53 107.105 52.1046 108 51 108H3C1.89543 108 1 107.105 1 106V30C1 28.8954 1.89543 28 3 28H34" stroke="#E3000F" stroke-linecap="round"/>
<rect x="73" y="1" width="52" height="80" rx="2" stroke="#E3000F"/>
<path d="M73 101V144C73 145.657 74.3431 147 76 147H140" stroke="#E3000F" stroke-linecap="round"/>
<path d="M113 111L113 94C113 92.8954 112.105 92 111 92L53.5 92" stroke="#E3000F" stroke-linecap="round" stroke-dasharray="2 4"/>
<path d="M73 139L84.7597 126.345L97.7107 137.066L113.462 115.959L125.013 126.345L140 110" stroke="#E3000F" stroke-linecap="round"/>
<path d="M73 51.1355L85.3071 38.8284C86.8692 37.2663 89.4018 37.2663 90.9639 38.8284L118.135 66" stroke="#E3000F"/>
<path d="M102.135 50L108.307 43.8284C109.869 42.2663 112.402 42.2663 113.964 43.8284L125 54.8645" stroke="#E3000F"/>
<path d="M1 92H53.5" stroke="#E3000F"/>
<path d="M1 44L53 44" stroke="#E3000F"/>
<path d="M73 17H125.5" stroke="#E3000F"/>
<path d="M73 66L125 66" stroke="#E3000F"/>
<circle cx="81.5" cy="73.5" r="3.5" stroke="#E3000F"/>
<circle cx="93.5" cy="73.5" r="3.5" stroke="#E3000F"/>
<circle cx="113.5" cy="115.5" r="4.5" stroke="#E3000F"/>
<path d="M90 9H114" stroke="#E3000F" stroke-linecap="round"/>
<circle cx="9.5" cy="100.5" r="3.5" stroke="#E3000F"/>
<circle cx="21.5" cy="100.5" r="3.5" stroke="#E3000F"/>
<circle cx="9.5" cy="36.5" r="3.5" stroke="#E3000F"/>
<circle cx="81.5" cy="8.5" r="3.5" stroke="#E3000F"/>
<path d="M19 36H28" stroke="#E3000F" stroke-linecap="round"/>
<circle cx="112" cy="32" r="5" stroke="#E3000F"/>
<path d="M39.2049 44C39.0704 44.6734 39 45.3687 39 46.08C39 52.1109 44.0626 57 50.3077 57C51.2355 57 52.1371 56.8921 53 56.6886" stroke="#E3000F"/>
<path d="M28.4286 62.7143C28.4286 60.6629 26.7656 59 24.7143 59C22.6629 59 21 60.6629 21 62.7143L28.0571 72L35.8571 62.7143" stroke="#E3000F" stroke-linecap="round"/>
<path d="M35.8571 62.7143C35.8571 60.6629 34.1942 59 32.1429 59C30.0915 59 28.4286 60.6629 28.4286 62.7143" stroke="#E3000F" stroke-linecap="round"/>
<circle cx="15" cy="71" r="6" stroke="#E3000F" stroke-linecap="round"/>
<path d="M26 92C26 85.9249 21.0751 81 15 81C8.92487 81 4 85.9249 4 92" stroke="#E3000F" stroke-linecap="round"/>
<path d="M66.6027 17.8014C66.6027 25.9759 59.9759 32.6027 51.8014 32.6027C48.0105 32.6027 37 32.6027 37 32.6027C37 32.6027 37 22.185 37 17.8014C37 9.6268 43.6268 3 51.8014 3C59.9759 3 66.6027 9.6268 66.6027 17.8014Z" stroke="#E3000F" stroke-linecap="round"/>
<path d="M44.9293 15.6868H57.8805" stroke="#E3000F" stroke-linecap="round"/>
<path d="M44.9293 20.9731H57.8805" stroke="#E3000F" stroke-linecap="round"/>
</svg>
