<svg width="105" height="104" viewBox="0 0 105 104" fill="none" xmlns="http://www.w3.org/2000/svg">
<ellipse cx="21.396" cy="18.5919" rx="9.216" ry="9.6" stroke="#E3000F" stroke-linecap="round"/>
<ellipse cx="52.116" cy="10.3041" rx="9.216" ry="9.6" stroke="#E3000F" stroke-linecap="round"/>
<path d="M45.5 3.5C46.5 5.66667 51.1 9.8 61.5 9" stroke="#E3000F"/>
<path d="M12 17.6689C14.19 18.6168 20.3742 18.6298 27.5912 11.0989" stroke="#E3000F"/>
<path d="M76 12C77 14.3209 81.6 18.7484 92 17.8915" stroke="#E3000F"/>
<path d="M92 18.5V31H74V18" stroke="#E3000F"/>
<path d="M43 9.5C44 10 47.5 9 48.5 6.5" stroke="#E3000F"/>
<ellipse cx="83" cy="18.5" rx="9" ry="9.5" stroke="#E3000F" stroke-linecap="round"/>
<path d="M39.06 51.9999C39.06 42.2444 31.1516 34.3359 21.396 34.3359C11.6404 34.3359 3.73199 42.2444 3.73199 51.9999" stroke="#E3000F" stroke-linecap="round"/>
<path d="M69.4886 40.5C67.9782 32.2781 60.7746 26.0481 52.116 26.0481C43.4949 26.0481 36.3163 32.2241 34.7633 40.3931" stroke="#E3000F" stroke-linecap="round"/>
<rect x="49" y="94" width="6" height="6" rx="3" stroke="#E3000F"/>
<rect x="46" y="91" width="12" height="12" rx="6" stroke="#E3000F"/>
<path d="M38 85C41.2254 81.3516 46.2967 79 52 79C57.7033 79 62.7746 81.3516 66 85" stroke="#E3000F" stroke-linecap="round"/>
<path d="M18 80C25.9483 70.8791 38.4454 65 52.5 65C66.5546 65 79.0517 70.8791 87 80" stroke="#E3000F" stroke-linecap="round"/>
<path d="M1 75C12.8648 60.4065 31.5199 51 52.5 51C73.4801 51 92.1352 60.4065 104 75" stroke="#E3000F" stroke-linecap="round"/>
<path d="M100.5 51.9999C100.5 42.2444 92.5916 34.3359 82.836 34.3359C73.0804 34.3359 65.172 42.2444 65.172 51.9999" stroke="#E3000F" stroke-linecap="round"/>
</svg>
