<svg width="11" height="11" viewBox="0 0 11 11" fill="none" xmlns="http://www.w3.org/2000/svg">
<path d="M10.0625 4.875H6.125V0.9375C6.125 0.71875 5.90625 0.5 5.6875 0.5H4.8125C4.56641 0.5 4.375 0.71875 4.375 0.9375V4.875H0.4375C0.191406 4.875 0 5.09375 0 5.3125V6.1875C0 6.43359 0.191406 6.625 0.4375 6.625H4.375V10.5625C4.375 10.8086 4.56641 11 4.8125 11H5.6875C5.90625 11 6.125 10.8086 6.125 10.5625V6.625H10.0625C10.2812 6.625 10.5 6.43359 10.5 6.1875V5.3125C10.5 5.09375 10.2812 4.875 10.0625 4.875Z" fill="white"/>
</svg>
