<svg width="13" height="11" viewBox="0 0 13 11" fill="none" xmlns="http://www.w3.org/2000/svg">
<path d="M11.9219 1.53125C12.0859 1.53125 12.25 1.39453 12.25 1.20312V0.328125C12.25 0.164062 12.0859 0 11.9219 0H0.328125C0.136719 0 0 0.164062 0 0.328125V1.20312C0 1.39453 0.136719 1.53125 0.328125 1.53125H11.9219ZM11.9219 5.90625C12.0859 5.90625 12.25 5.76953 12.25 5.57812V4.70312C12.25 4.53906 12.0859 4.375 11.9219 4.375H0.328125C0.136719 4.375 0 4.53906 0 4.70312V5.57812C0 5.76953 0.136719 5.90625 0.328125 5.90625H11.9219ZM11.9219 10.2812C12.0859 10.2812 12.25 10.1445 12.25 9.95312V9.07812C12.25 8.91406 12.0859 8.75 11.9219 8.75H0.328125C0.136719 8.75 0 8.91406 0 9.07812V9.95312C0 10.1445 0.136719 10.2812 0.328125 10.2812H11.9219Z" fill="#6F6F6E"/>
</svg>
