<svg width="24" height="24" viewBox="0 0 24 24" fill="none" xmlns="http://www.w3.org/2000/svg">
<path d="M11.625 0.375C5.20312 0.375 0 5.57812 0 12C0 18.4219 5.20312 23.625 11.625 23.625C18.0469 23.625 23.25 18.4219 23.25 12C23.25 5.57812 18.0469 0.375 11.625 0.375ZM11.625 21.375C6.42188 21.375 2.25 17.2031 2.25 12C2.25 6.84375 6.42188 2.625 11.625 2.625C16.7812 2.625 21 6.84375 21 12C21 17.2031 16.7812 21.375 11.625 21.375ZM16.3594 9.09375C16.5938 8.90625 16.5938 8.53125 16.3594 8.29688L15.3281 7.26562C15.0938 7.03125 14.7188 7.03125 14.5312 7.26562L11.625 10.1719L8.67188 7.26562C8.48438 7.03125 8.10938 7.03125 7.875 7.26562L6.84375 8.29688C6.60938 8.53125 6.60938 8.90625 6.84375 9.09375L9.75 12L6.84375 14.9531C6.60938 15.1406 6.60938 15.5156 6.84375 15.75L7.875 16.7812C8.10938 17.0156 8.48438 17.0156 8.67188 16.7812L11.625 13.875L14.5312 16.7812C14.7188 17.0156 15.0938 17.0156 15.3281 16.7812L16.3594 15.75C16.5938 15.5156 16.5938 15.1406 16.3594 14.9531L13.4531 12L16.3594 9.09375Z" fill="#E3000F"/>
</svg>
