<svg width="57" height="28" viewBox="0 0 57 28" fill="none" xmlns="http://www.w3.org/2000/svg">
<path d="M2.4859 16.0831L0 27.2421H3.05141L3.43628 25.5301H6.10577L6.56525 27.2421H9.59703L7.15924 16.0831H2.4859ZM5.49412 22.5909H4.08033L4.79803 19.2422L5.49412 22.5909Z" fill="#E3000F"/>
<path d="M13.6881 16.0831H9.83167V27.2421H13.6881C15.6115 27.2421 16.8515 26.7477 17.5908 25.6855C18.3605 24.5804 18.4636 22.9348 18.4636 21.4711C18.4636 18.0589 17.6821 16.0831 13.6881 16.0831ZM12.8301 18.994H13.6881C15.1402 18.994 15.3768 19.3409 15.3768 21.4711C15.3768 23.7977 15.0617 24.3322 13.6881 24.3322H12.8301V18.994Z" fill="#E3000F"/>
<path d="M23.0957 24.0195L21.41 16.0831H18.2457L20.8131 27.2421H25.3755L27.9752 16.0831H24.8109L23.0957 24.0195Z" fill="#6F6F6E"/>
<path d="M31.2279 16.0831H28.2001V27.2421H31.2279V16.0831Z" fill="#6F6F6E"/>
<path d="M36.5934 20.3278C35.053 19.6702 35.053 19.594 35.053 19.2715C35.053 19.0087 35.3269 18.8748 35.8669 18.8748C36.6847 18.8748 38.4382 19.1044 38.4559 19.1064L38.9644 19.1728L39.2099 16.4144L38.7975 16.3167C38.7268 16.3 37.0519 15.9053 35.8669 15.9053C33.4968 15.9053 32.0251 17.2068 32.0251 19.3009C32.0251 21.348 32.8076 22.0193 35.159 22.9984C36.3538 23.4938 36.3538 23.5827 36.3538 23.8749C36.3538 24.2218 36.2999 24.4485 35.5851 24.4485C34.5788 24.4485 32.7791 24.2051 32.7605 24.2022L32.2627 24.1348L31.9485 26.904L32.3864 26.9949C32.4699 27.0125 34.4364 27.418 35.6008 27.418C38.0042 27.418 39.3827 26.1106 39.3827 23.8309C39.3817 21.8463 38.5216 21.1457 36.5934 20.3278Z" fill="#6F6F6E"/>
<path d="M40.1789 27.2421H47.6543V24.3165H43.1773V23.184H46.7648V20.3034H43.1773V19.0087H47.6543V16.0831H40.1789V27.2421Z" fill="#6F6F6E"/>
<path d="M55.4497 23.0433C56.3903 22.3251 56.8321 21.3323 56.8321 19.9506C56.8321 17.3123 55.5449 16.0831 52.7831 16.0831H48.3778V27.2421H51.4057V23.952H52.5259L53.7119 27.2421H56.9999L55.4497 23.0433ZM51.4057 18.994H52.7831C53.4861 18.994 53.76 19.2705 53.76 19.9809C53.76 20.9161 53.2809 21.0411 52.8126 21.0411H51.4057V18.994Z" fill="#6F6F6E"/>
<path d="M25.4943 4.92215H24.6981V10.1381H25.4943C26.8325 10.1381 27.1211 9.64078 27.1211 7.33863C27.1211 5.23777 26.9081 4.92215 25.4943 4.92215Z" fill="#E3000F"/>
<path d="M8.7409 4.92215H7.42529V6.84712H8.77035C9.23081 6.84712 9.65593 6.72596 9.65593 5.84751C9.65691 5.1723 9.40851 4.92215 8.7409 4.92215Z" fill="#E3000F"/>
<path d="M30.9324 0.0237427H3.42742C2.695 0.0237427 2.10101 0.614915 2.10101 1.34387V13.4321C2.10101 14.1611 2.695 14.7522 3.42742 14.7522H22.163L23.1094 19.7083L24.1786 14.7522H30.9314C31.6638 14.7522 32.2578 14.1611 32.2578 13.4321V1.34387C32.2588 0.614915 31.6658 0.0237427 30.9324 0.0237427ZM9.62745 13.1702L8.44144 9.8802H7.42528V13.1702H4.27471V1.88911H8.74089C11.5066 1.88911 12.8517 3.17406 12.8517 5.81821C12.8517 7.20282 12.4138 8.2044 11.4811 8.93139L13.0461 13.1702H9.62745ZM20.976 4.93683H16.499V6.1094H20.0865V9.11217H16.499V10.1225H20.976V13.1702H13.3779V1.88911H20.976V4.93683ZM29.4469 11.5873C28.6949 12.667 27.4392 13.1702 25.4942 13.1702H21.5759V1.88911H25.4942C29.5225 1.88911 30.3315 3.97434 30.3315 7.33767C30.3315 9.45417 30.0753 10.6854 29.4469 11.5873Z" fill="#E3000F"/>
</svg>
