<?xml version="1.0" encoding="utf-8"?>
<!-- Generator: Adobe Illustrator 24.0.0, SVG Export Plug-In . SVG Version: 6.00 Build 0)  -->
<svg version="1.1" id="Layer_1" xmlns="http://www.w3.org/2000/svg" xmlns:xlink="http://www.w3.org/1999/xlink" x="0px" y="0px"
	 viewBox="0 0 450 450" style="enable-background:new 0 0 450 450;" xml:space="preserve">
<style type="text/css">
	.st0{fill:none;stroke:#231F20;stroke-width:8;stroke-miterlimit:10;}
	.st1{fill:none;stroke:#231F20;stroke-width:6.4444;stroke-miterlimit:10;}
	.st2{fill:none;stroke:#231F20;stroke-width:2;stroke-miterlimit:10;}
	.st3{fill:none;stroke:#231F20;stroke-width:4;stroke-miterlimit:10;}
	.st4{fill:#231F20;}
	.st5{fill:none;stroke:#231F20;stroke-width:8.3563;stroke-miterlimit:10;}
</style>
<g>
	<path class="st4" d="M318.8,199.34c-2.17-1.82-4.67-2.44-7.02-1.75c-0.1,0.03-0.19,0.08-0.29,0.11c5.52-7.55,10.56-30.96,1.44-53.1
		c-2.03-4.93-5.15-6.51-7.49-6.94c1.83-5.65,2.06-12.6-1.6-20.17c-7.16-14.81-38.73-43.36-85.95-31.76
		c-46.36,11.39-50.78,7.64-60.48-0.57c-1.59-1.34-3.38-2.86-5.47-4.45l0,0c-2.14-1.62-4.88-2.01-7.32-1.04
		c-2.34,0.93-4,2.98-4.42,5.49c-4.23,25.06,0.37,39.6,6.04,47.87l-0.25-0.09c-7.33,20.52-11.33,46.96-4.8,57.78
		c1.5,2.49,3.33,3.86,5.04,4.61c0.26,1.23,0.53,2.7,0.79,4.36c-1.02-0.97-2.2-1.7-3.58-2.1c-2.35-0.69-4.84-0.07-7.02,1.75
		c-5.57,4.66-8.02,15.68-6.55,29.49c0.51,4.77,0.43,10,0.35,14.62c-0.15,9.84-0.27,17.61,5.58,18.61c0.91,0.16,1.75,0.23,2.54,0.23
		c2.39,0,4.25-0.69,5.75-1.86c-0.12,15.83,0.86,28.54,1,30.35c0.01,4.61,0.41,9.17,1.14,13.65l-0.17,0.07
		c0.09,0.22,0.2,0.48,0.31,0.75c2.92,16.81,10.82,32.45,23,45.05c15.81,16.37,36.69,25.38,58.79,25.38s42.97-9.01,58.79-25.38
		c12.25-12.68,20.17-28.42,23.05-45.35c0.07-0.16,0.13-0.32,0.19-0.46l-0.1-0.04c0.74-4.51,1.14-9.1,1.15-13.74
		c0.08-1.52,0.67-14.08,0.46-29.88c1.4,0.92,3.09,1.46,5.19,1.46c0.79,0,1.64-0.07,2.54-0.23c5.86-1,5.74-8.77,5.58-18.6
		c-0.07-4.62-0.15-9.85,0.36-14.62C326.82,215.02,324.37,203.99,318.8,199.34z M303.96,145.52c0.45,0.07,1.06,0.91,1.57,2.13
		c6.6,16.02,4.48,32.57,1.73,40.75c-4.39-20.44-7.28-34.64-8.32-39.8c0.25-0.26,0.51-0.54,0.76-0.83
		C301.29,146.41,303.04,145.39,303.96,145.52z M147.88,87.7c1.58,1.23,2.99,2.42,4.35,3.57c12.26,10.38,19.17,14.12,67.56,2.23
		c40.15-9.87,69.85,13.02,76.83,27.47c4.47,9.25,0.85,16.53-2.01,20.31c-10.13-10.46-20.98-13.88-33.39-13.88
		c-10.11,0-21.27,2.27-33.91,4.84c-12.93,2.63-27.59,5.61-44.87,7.06c-12.35,1.04-21.58-1.68-27.46-8.07
		C144.71,120.07,146,99.66,147.88,87.7z M152.48,139.8c2.61,2.1,5.54,3.78,8.82,5.02c-5.4,9.39-7.97,21.65-9.92,31.01
		c-0.82,3.93-1.8,8.61-2.69,11.09c-0.11-0.14-0.23-0.31-0.35-0.51C144.26,179.66,146.17,159.35,152.48,139.8z M144.95,238.84
		c-0.21,1.13-0.4,2.23-0.59,3.3c-2.06,11.68-3.24,14.09-7.05,13.62c-0.82-1.71-0.73-7.75-0.66-12.22c0.07-4.8,0.16-10.24-0.39-15.4
		c-1.56-14.71,1.95-21.92,4.28-23.86c0.5-0.42,0.91-0.56,1.08-0.51c3.18,0.93,5.33,11.15,4.68,23.65
		c-0.51,3.53-0.91,7.15-1.23,10.78C145.02,238.41,144.99,238.63,144.95,238.84z M158.5,319.01c0.73,0.18,1.49,0.27,2.29,0.27
		c0.01,0,0.02,0,0.04,0c2.22-0.01,4.22-0.77,6-1.94v17.22C163.45,329.68,160.66,324.47,158.5,319.01z M281.18,344.73
		c-1.51,1.56-3.08,3.04-4.69,4.45v-10.24h-2v11.93c-4.35,3.57-9,6.61-13.9,9.07V332.9h-2v28.01c-9.49,4.42-19.81,6.76-30.44,6.76
		c-1.37,0-2.73-0.05-4.09-0.12v-10.7h-2v10.54c-15.47-1.3-30.04-7.55-42.05-18.03v-12.72h-2v10.93c-0.98-0.92-1.95-1.87-2.9-2.84
		c-2.27-2.35-4.36-4.83-6.3-7.39v-21.56c4.23-3.85,6.8-9.72,7.46-11.37c1.79-4.57,4.3-8.39,7.2-11.57
		c-2.89,16.59,3.74,29.81,4.09,30.5l0.56,1.09l1.07,0.59c0.36,0.2,7.21,3.91,17.52,6.76v22.49h2V332.3c2.38,0.6,4.92,1.15,7.6,1.59
		c4.47,0.74,8.84,1.11,13.09,1.11c4.9,0,9.63-0.49,14.17-1.46v21.78h2v-22.25c9.04-2.24,17.28-6.43,24.46-12.52l0.46-0.39l0.33-0.51
		c0.33-0.53,6.18-10.01,4.02-24.23c1.57,2.06,2.99,4.34,4.17,6.88v27.51h2V306.9c5.6,11.73,12.89,12.38,14.37,12.38
		c0.01,0,0.02,0,0.04,0c0.83,0,1.61-0.1,2.36-0.29C294.07,328.44,288.48,337.18,281.18,344.73z M263.28,285.12
		c7.66,15.77,2.4,27.33,1.08,29.78c-27.42,22.65-63.34,6.99-70.16,3.68c-1.71-4.09-6.86-18.87,0.31-34.38
		c10.93-6.16,22.05-7.15,22.23-7.17l0.46-0.06c0.06-0.01,6.38-1.13,22.28,0.06C239.68,277.04,251.87,278.13,263.28,285.12z
		 M302.45,301.29c-3.86,9.36-6.7,9.63-7.01,9.63h0c-2.18,0-5.88-5.08-7.71-9.56c-11.6-29.59-46.13-32.56-47.6-32.67
		c-15.62-1.17-22.77-0.22-24.23,0.02c-3.25,0.29-36.13,3.92-47.37,32.61c-1.62,4.01-5.35,9.6-7.73,9.61c0,0,0,0,0,0
		c-0.32,0-3.11-0.29-6.94-9.45c-0.51-3.58-0.77-7.21-0.77-10.88l-0.01-0.33c-0.03-0.38-3.16-38.71,1.95-66.69
		c2.09-11.48,0.43-23.14-0.89-29.57c1.02-1.15,1.9-2.75,2.6-4.84c1.01-2.98,1.85-6.99,2.82-11.62c1.99-9.53,4.67-22.33,10.23-30.57
		c4.08,0.6,8.52,0.7,13.33,0.3c17.74-1.49,32.64-4.52,45.79-7.19c28.63-5.82,46.06-9.35,61.95,8.96c0.85,4.24,4.29,21.21,9.72,46.39
		c0.2,0.94,0.48,1.71,0.81,2.36c-0.95,6.12-1.59,15.01-0.13,25.61c3.89,28.33,1.99,66.61,1.97,66.99l0,0.21
		c0,3.61-0.26,7.18-0.75,10.7L302.45,301.29z M318.94,228.15c-0.55,5.16-0.46,10.6-0.39,15.4c0.07,4.47,0.16,10.5-0.66,12.22
		c-3.63,0.45-4.88-1.74-6.77-12.07c-0.39-7.22-1-14.54-1.94-21.39c-0.12-0.91-0.23-1.8-0.32-2.67c0.38-8.73,2.24-15.14,4.72-15.86
		c0.02-0.01,0.05-0.01,0.07-0.01c0.2,0,0.56,0.15,1,0.52C316.99,206.23,320.51,213.44,318.94,228.15z"/>
	<rect x="210.64" y="309.25" class="st4" width="39.81" height="8.36"/>
	<path class="st4" d="M223.84,252.7v-59.53l-1.88-1.24c-11.33-7.46-25.24-9.21-40.22-5.06c-11.07,3.07-18.83,8.25-19.16,8.47
		l4.68,6.93c0.27-0.18,26.04-17.25,48.23-4.52v60.14l2.16,1.19c0.37,0.21,6.38,3.44,14.59,3.44c4.21,0,9-0.85,13.91-3.39l-3.84-7.42
		C234.64,255.68,227.35,253.97,223.84,252.7z"/>
	<path class="st4" d="M199.49,213.22c0-5.71-4.65-10.36-10.36-10.36s-10.36,4.65-10.36,10.36s4.65,10.36,10.36,10.36
		S199.49,218.94,199.49,213.22z M186.78,213.22c0-1.3,1.06-2.36,2.36-2.36s2.36,1.06,2.36,2.36s-1.06,2.36-2.36,2.36
		S186.78,214.52,186.78,213.22z"/>
	<path class="st4" d="M264.47,202.87c-5.71,0-10.36,4.65-10.36,10.36s4.65,10.36,10.36,10.36c5.71,0,10.36-4.65,10.36-10.36
		S270.18,202.87,264.47,202.87z M264.47,215.58c-1.3,0-2.36-1.06-2.36-2.36s1.06-2.36,2.36-2.36c1.3,0,2.36,1.06,2.36,2.36
		S265.77,215.58,264.47,215.58z"/>
	<path class="st4" d="M237.13,191.03l3.35,7.26c1.12-0.51,27.79-12.37,48.91,7.43l5.47-5.84
		C269.76,176.34,238.45,190.42,237.13,191.03z"/>
	<path class="st4" d="M205.75,290.89l-3.24,7.32c0.76,0.34,12.94,5.61,29.14,5.61c8.36,0,17.79-1.4,27.28-5.61l-3.24-7.31
		C231.11,301.79,206,291,205.75,290.89z"/>
	<path class="st4" d="M251.82,244.22c0.24,0.7,6.02,17.37,18.1,29.49l2.83-2.82c-11.42-11.45-17.09-27.8-17.15-27.96L251.82,244.22z
		"/>
	<path class="st4" d="M185.29,270.88l2.83,2.82c12.08-12.13,17.86-28.79,18.1-29.49l-3.79-1.29
		C202.38,243.09,196.71,259.43,185.29,270.88z"/>
	<path class="st4" d="M191.22,109.79c3.01-0.63,6.45-1.53,10.42-2.58c22.34-5.89,56.1-14.78,80.26,8.5l1.39-1.44
		c-24.97-24.06-59.38-14.99-82.16-8.99c-3.95,1.04-7.36,1.94-10.32,2.56c-14.92,3.11-24.44,0.76-29.79-1.76
		c-5.76-2.71-8.07-6.2-8.09-6.24l-1.68,1.08C151.65,101.54,161.28,116.04,191.22,109.79z"/>
	<path class="st4" d="M237.04,117.91l0.48,1.94c0.34-0.09,34.44-8.22,54.92,11.66l1.39-1.44
		C272.54,109.41,237.39,117.82,237.04,117.91z"/>
	<path class="st4" d="M190.4,116.11c-21.8,5.08-29.7-1.61-29.77-1.67l-1.34,1.49c0.25,0.22,4.72,4.11,16.05,4.11
		c4.19,0,9.32-0.53,15.52-1.98c22.53-5.26,29.65-8.01,29.94-8.12l-0.73-1.86C219.99,108.1,212.73,110.9,190.4,116.11z"/>
	<path class="st4" d="M187.89,127.92l0.24,1.98c0.82-0.1,20.16-2.5,27.17-5.03l-0.68-1.88
		C207.83,125.44,188.09,127.89,187.89,127.92z"/>
</g>
</svg>
