<?xml version="1.0" encoding="utf-8"?>
<!-- Generator: Adobe Illustrator 24.0.0, SVG Export Plug-In . SVG Version: 6.00 Build 0)  -->
<svg version="1.1" id="Layer_1" xmlns="http://www.w3.org/2000/svg" xmlns:xlink="http://www.w3.org/1999/xlink" x="0px" y="0px"
	 viewBox="0 0 450 450" style="enable-background:new 0 0 450 450;" xml:space="preserve">
<style type="text/css">
	.st0{fill:none;stroke:#231F20;stroke-width:8;stroke-miterlimit:10;}
	.st1{fill:none;stroke:#231F20;stroke-width:6.4444;stroke-miterlimit:10;}
	.st2{fill:none;stroke:#231F20;stroke-width:2;stroke-miterlimit:10;}
	.st3{fill:none;stroke:#231F20;stroke-width:4;stroke-miterlimit:10;}
	.st4{fill:#231F20;}
	.st5{fill:none;stroke:#231F20;stroke-width:8.3563;stroke-miterlimit:10;}
</style>
<g>
	<path class="st4" d="M188.7,136.32c1.97-0.27,3.96-0.38,5.97-0.35c4.01,0.13,8.05,0.75,12.02,1.79c3.09,0.82,6.15,1.79,9.18,2.91
		c-0.08,4.77-0.11,9.54-0.17,14.31c-0.08,5.65-0.08,11.3-0.1,16.95c-0.03,5.65,0,11.3,0.03,16.95c0.01,5.65,0.12,11.3,0.17,16.95
		l0.03,2.84l2.5,1.15c0.52,0.24,0.83,0.35,1.24,0.51l1.14,0.41c0.76,0.26,1.53,0.48,2.3,0.69c1.55,0.4,3.15,0.71,4.8,0.86
		c1.66,0.14,3.37,0.14,5.14-0.1c1.76-0.26,3.56-0.78,5.25-1.64l-3.43-7.23c-1.65,0.66-3.76,0.77-6,0.44
		c-1.12-0.18-2.27-0.41-3.4-0.77c-0.22-0.07-0.44-0.15-0.66-0.22c0-4.65,0.01-9.3-0.04-13.95c-0.04-5.65-0.08-11.3-0.18-16.95
		c-0.09-5.65-0.16-11.3-0.31-16.95c-0.14-5.65-0.24-11.3-0.42-16.95l-0.09-2.82l-2.45-0.83c-4.24-1.43-8.57-2.71-13.05-3.48
		c-4.46-0.8-9.07-1.17-13.7-0.78c-4.61,0.36-9.28,1.56-13.38,3.9c-4.06,2.39-7.54,5.77-9.26,10.27l1.87,0.79
		c0.49-0.75,1.16-1.59,1.85-2.3c0.7-0.72,1.45-1.39,2.24-2c1.61-1.19,3.34-2.18,5.19-2.89C184.82,137.12,186.73,136.61,188.7,136.32
		z"/>
	<path class="st4" d="M265.54,130.36c-4.11-0.58-8.38-0.32-12.41,0.55c-4.05,0.86-7.89,2.25-11.6,3.84l3.64,7.12
		c3.13-1.83,6.35-3.47,9.68-4.63c3.33-1.17,6.77-1.82,10.28-1.77c3.51,0.03,7.09,0.75,10.63,1.9c3.54,1.14,7.05,2.62,10.55,4.14
		l1.03-2c-3.3-1.96-6.65-3.9-10.23-5.57C273.54,132.26,269.66,130.93,265.54,130.36z"/>
	<path class="st4" d="M206.16,234.07l-3.24,7.32c0.76,0.34,12.94,5.61,29.14,5.61c8.36,0,17.79-1.4,27.28-5.61l-3.24-7.31
		C231.54,244.96,206.42,234.18,206.16,234.07z"/>
	<path class="st4" d="M216.91,257.68l1.87,3.54c12.16-6.41,24.61-0.06,24.73,0l0.93-1.77l0.93-1.77
		C244.79,257.37,230.98,250.26,216.91,257.68z"/>
	<path class="st4" d="M194.32,143.5c-6.64,0-12.04,5.4-12.04,12.04c0,6.64,5.4,12.04,12.04,12.04s12.04-5.4,12.04-12.04
		C206.35,148.9,200.95,143.5,194.32,143.5z M194.32,159.57c-2.23,0-4.04-1.81-4.04-4.04c0-2.23,1.81-4.04,4.04-4.04
		s4.04,1.81,4.04,4.04C198.35,157.76,196.54,159.57,194.32,159.57z"/>
	<path class="st4" d="M351.37,315.68c1.3-1.76,2.55-3.6,3.7-5.56c13.36-22.71,16.36-58.64,8.46-101.17
		c-7.76-41.75-25.42-86.98-49.72-127.36c-15.05-25-31.93-39.68-50.19-43.62c-9.07-1.96-16.25-0.66-20.38,0.59
		c-5.15-5.41-13.68-9-23.32-9.72c-8.58-0.63-22.21,0.64-38.37,10.3c-28.18,16.85-43.25,37.36-57.58,78.37
		c-1.87,5.36-4.34,11.77-6.96,18.56c-15.5,40.26-40.16,104.34-19,149.77c-6.08,11.37-35.2,68.81-22.4,103.51
		c4.05,10.98,11.83,18.66,23.13,22.84c7.41,2.74,14.06,3.85,19.98,3.85c11.77,0,20.6-4.38,26.61-8.93
		c7.57-5.75,11.91-12.64,13.53-15.57c4.63-2.37,8.78-5.5,12.4-9.43c9.74-10.56,15.21-26.7,15.83-46.7
		c0.53-17.25-2.6-37.14-8.82-55.99c-1.59-4.82-3.06-9.66-4.42-14.49c11.61,16.61,28.84,25.67,50.1,25.67h11.53
		c34.02,0,58.98-23.28,63.62-59.32c0.63-3.81,1.34-7.88,2.07-12.07c1.11-6.42,2.27-13.11,3.32-19.68
		c2.41,21.9,1.74,40.93-10.72,66.15c-14.13,28.6-20.29,54.59-18.3,77.24c1.67,19.07,9.45,35.32,21.89,45.75
		c9.2,7.71,20.2,11.65,30.8,11.65c8.36,0,16.47-2.45,23.25-7.44c10.42-7.67,16.32-17.35,17.54-28.78
		C371.18,343.25,357,322.86,351.37,315.68z M165.11,376.46c-10.92,11.84-28.07,15.03-50.97,9.47l-1.97,8.12
		c7.99,1.94,15.4,2.91,22.21,2.91c3.82,0,7.45-0.31,10.89-0.91c-5.33,5.62-13.98,11.65-26.57,11.64c-5.04,0-10.72-0.97-17.06-3.32
		c-9.03-3.34-14.98-9.19-18.19-17.89c-10.2-27.66,10.8-74.49,19.43-91.78c1.97,3.07,4.2,6.02,6.71,8.85l6.26-5.54
		c-36.38-41.11-7.99-114.86,8.97-158.93c2.64-6.85,5.13-13.32,7.05-18.81c13.77-39.39,27.39-58.05,53.98-73.95
		c24.67-14.75,45.74-9.33,52.21-1.02c2.96,3.8,5.51,10.49,2.97,16.81c-2.58,6.4-11.2,14.83-37.64,18.63
		c-39.95,5.74-44.28,31.44-49.3,61.19c-0.32,1.89-0.64,3.81-0.98,5.76c-1.03,5.97-1.56,14.66-1.42,25.25h-0.04
		c0,4.6,0.19,8.88,0.51,12.95c1.56,26.97,6.93,62.12,18.17,96.18C181.07,314.59,183.62,356.4,165.11,376.46z M292.94,217.8
		c-0.74,4.24-1.45,8.35-2.09,12.2l-0.02,0.16c-4.11,32.14-25.31,52.11-55.34,52.11h-11.53c-14.87,0-27.32-4.95-37.02-14.71
		c-8.9-8.96-15.32-22-18.54-37.63c-0.89-4.81-1.87-9.4-2.82-13.84c-2.37-11.13-4.63-21.75-5.34-34.72c-0.1-2.3-0.17-4.53-0.22-6.68
		c-0.01-0.58-0.02-1.16-0.02-1.75h-0.01c-0.13-9.99,0.37-18.18,1.34-23.82c0.34-1.96,0.67-3.89,0.99-5.79
		c5.02-29.77,8.33-49.44,42.25-54.31c21.53-3.1,35.64-9.7,42.05-19.64c2.67,4.02,6.81,8.9,13.14,13.8c2.8,2.17,5.89,3.96,8.88,5.68
		c12.14,7.02,25.9,14.97,29.13,55.93c0.53,6.77,1.22,13.12,1.96,19.1C300.13,176.32,296.31,198.35,292.94,217.8z M360.65,363.26
		c-0.96,8.99-5.74,16.7-14.18,22.91c-12.26,9.02-30.25,7.42-43.73-3.89c-10.73-9-17.46-23.23-18.94-40.08
		c-1.85-21.11,4.02-45.61,17.46-72.81c16.92-34.25,13.64-57.35,9.09-89.32c-1.5-10.53-3.2-22.46-4.26-35.96
		c-3.57-45.33-20.04-54.85-33.27-62.5c-2.87-1.66-5.58-3.23-7.94-5.05c-10.45-8.09-13.77-15.86-14.53-18
		c0.38-4.57-0.61-8.93-2.28-12.66c9.89-2.09,33.59-1.52,58.58,40c49.19,81.74,66.92,176.31,41.22,219.98
		c-9.74,16.55-25.13,24.59-45.8,23.87l-0.29,8.35c0.92,0.03,1.83,0.05,2.74,0.05c16.76,0,30.77-5.45,41.29-15.96
		C351.28,329.51,362.42,346.7,360.65,363.26z"/>
	<path class="st4" d="M264.32,143.5c-6.64,0-12.04,5.4-12.04,12.04c0,6.64,5.4,12.04,12.04,12.04s12.04-5.4,12.04-12.04
		C276.35,148.9,270.95,143.5,264.32,143.5z M264.32,159.57c-2.23,0-4.04-1.81-4.04-4.04c0-2.23,1.81-4.04,4.04-4.04
		s4.04,1.81,4.04,4.04C268.35,157.76,266.54,159.57,264.32,159.57z"/>
	<path class="st4" d="M191.35,54.79c20.68-11.08,37.91-9.31,38.08-9.29l0.22-1.99c-0.72-0.08-17.91-1.87-39.13,9.45
		c-35.33,18.85-53.2,59.1-61.97,89.55l1.92,0.55C146.15,88.66,172.23,65.03,191.35,54.79z"/>
	<path class="st4" d="M200.18,72.87c-34.3,6.04-42.67,29.89-42.75,30.13l1.9,0.63c0.08-0.23,8.06-22.96,41.2-28.79
		c28.59-5.03,31.5-22.36,31.61-23.1l-1.98-0.29C230.13,51.62,227.36,68.09,200.18,72.87z"/>
	<path class="st4" d="M139.38,172.82l-1.99,0.21c0.06,0.52,5.76,52.82,19.24,97.01c11.1,36.39,22.57,74.01-1.55,100.58l1.48,1.34
		c24.88-27.41,13.24-65.59,1.98-102.51C145.12,225.46,139.44,173.35,139.38,172.82z"/>
	<path class="st4" d="M117.15,207.92l-1.92-0.57c-0.13,0.44-12.97,44.41,5.71,72.66l1.67-1.1
		C104.46,251.44,117.02,208.35,117.15,207.92z"/>
	<path class="st4" d="M102.77,313.18c-0.29,0.54-28.98,54.4-2.41,83.55l1.48-1.35c-25.61-28.09,2.41-80.72,2.7-81.25L102.77,313.18z
		"/>
	<path class="st4" d="M152.03,291.05l-1.84,0.78c0.16,0.38,15.96,38.61,0.06,65.87l1.73,1.01
		C168.38,330.58,152.2,291.44,152.03,291.05z"/>
	<path class="st4" d="M342.5,288.16c22.02-51.29-11.4-135.81-11.74-136.66l-1.86,0.74c0.34,0.84,33.45,84.6,11.76,135.13
		c-6.61,15.39-17.72,26.28-33.02,32.36l0.74,1.86C324.2,315.3,335.68,304.06,342.5,288.16z"/>
	<path class="st4" d="M343.07,337.45c0.1,0.14,9.5,14.36,6.3,27.09c-1.49,5.92-5.5,10.65-11.93,14.05
		c-6.62,3.5-12.96,3.87-18.83,1.08c-12.51-5.94-19.79-24.75-21.03-30.94l-1.96,0.39c1.51,7.56,9.19,26.21,22.13,32.35
		c2.88,1.37,5.86,2.05,8.91,2.05c3.8,0,7.71-1.06,11.71-3.18c6.95-3.68,11.3-8.84,12.93-15.33c3.41-13.58-6.17-28.08-6.58-28.69
		L343.07,337.45z"/>
	<path class="st4" d="M330.73,285.09c11.06-16.9,11.53-38.14,9.97-52.98l-1.99,0.21c5.24,50.11-22.84,64.9-23.13,65.04l0.9,1.79
		C316.79,299,324.07,295.28,330.73,285.09z"/>
	<path class="st4" d="M258.56,54.47l-1.65,1.14c0.61,0.88,15.13,21.68,34.11,30.18l0.82-1.83C273.37,75.7,258.7,54.68,258.56,54.47z
		"/>
</g>
</svg>
