<?xml version="1.0" encoding="utf-8"?>
<!-- Generator: Adobe Illustrator 24.0.0, SVG Export Plug-In . SVG Version: 6.00 Build 0)  -->
<svg version="1.1" id="Layer_1" xmlns="http://www.w3.org/2000/svg" xmlns:xlink="http://www.w3.org/1999/xlink" x="0px" y="0px"
	 viewBox="0 0 684 226" style="enable-background:new 0 0 684 226;" xml:space="preserve">
<style type="text/css">
	.st0{opacity:0.2;}
	.st1{fill:#6F6F6E;}
</style>
<g class="st0">
	<path class="st1" d="M126.7,67.1L126.7,67.1c-5-4.6-12.6-6.9-22.6-6.9h-27v51.5h27c10,0,17.6-2.2,22.6-6.6c5-4.6,7.5-11,7.5-19.1
		C134.2,77.8,131.7,71.4,126.7,67.1z M124.7,102.8c-4.4,3.9-11.4,5.8-20.6,5.8h-24V63.1h24c9.2,0,16.2,2.1,20.6,6.1l0.1,0
		c4.4,3.8,6.5,9.3,6.5,16.6C131.2,93.2,129.1,98.8,124.7,102.8z"/>
	<path class="st1" d="M667.4,52.9c-10.5-17-25.6-30.1-44.9-39.1c-19-9.2-41.1-13.8-66-13.8H445.2v225.8h111.3c24.8,0,47-4.5,66-13.5
		c19.3-9.2,34.4-22.5,44.9-39.4c10.7-16.9,16.2-37.1,16.2-60C683.6,90,678.1,69.8,667.4,52.9z M664.9,171.3
		c-10.2,16.5-24.9,29.3-43.6,38.3c-18.5,8.7-40.3,13.2-64.7,13.2H448.2V3h108.3c24.4,0,46.1,4.5,64.7,13.5
		c18.7,8.7,33.4,21.5,43.6,38c10.4,16.5,15.7,36.1,15.7,58.4C680.6,135.2,675.3,154.8,664.9,171.3z"/>
	<path class="st1" d="M591.4,74.6L591.4,74.6c-9.4-9.2-22.2-13.8-38-13.8h-31.1V165h31.1c15.8,0,28.6-4.5,38-13.5
		c9.6-9.2,14.4-22.2,14.4-38.6C605.9,96.4,601,83.5,591.4,74.6z M589.3,149.3c-8.8,8.4-20.9,12.7-35.9,12.7h-28.1V63.8h28.1
		c15,0,27.1,4.4,35.9,13l0,0c9,8.4,13.5,20.5,13.5,36.1C602.9,128.5,598.3,140.8,589.3,149.3z"/>
	<path class="st1" d="M200.9,128.6c7.4-12.1,11.1-26.5,11.1-42.7c0-17.3-4.3-32.6-12.7-45.6c-8.4-13-20.6-23.1-36.1-30
		C147.7,3.5,129.4,0,108.8,0H0v225.8h80.1v-55.3h15.5l37.4,55.3h86.4L171.9,156C184.3,149.1,194,139.8,200.9,128.6z M213.7,222.8
		h-79.1l0,0l-37.4-55.3H77.1v55.3H3V3h105.8c20.2,0,38.1,3.4,53.1,10c15,6.7,26.7,16.4,34.9,28.9c8.1,12.5,12.2,27.3,12.2,44
		c0,15.6-3.6,29.5-10.7,41.1c-6.8,11.2-16.7,20.4-29.3,27.2l-1.5,0.8L213.7,222.8z"/>
	<path class="st1" d="M312.8,141h92.9V81.6h-92.9V61.9h105.8V0H234v225.8h188.7v-61.9H312.8V141z M419.7,166.9v55.9H237V3h178.7
		v55.9H309.8v25.7h92.9V138h-92.9v28.9H419.7z"/>
</g>
</svg>
